<?xml version="1.0" standalone="no"?><!DOCTYPE svg PUBLIC "-//W3C//DTD SVG 1.1//EN" "http://www.w3.org/Graphics/SVG/1.1/DTD/svg11.dtd"><svg t="1586767216168" class="icon" viewBox="0 0 1024 1024" version="1.1" xmlns="http://www.w3.org/2000/svg" p-id="48812" xmlns:xlink="http://www.w3.org/1999/xlink" width="200" height="200"><defs><style type="text/css"></style></defs><path d="M1002.262 633.959c-17.625-32.623-58.336-44.744-90.966-27.178L688.202 727.272a82.43 82.43 0 0 1-2.941 55.343c-12.805 30.689-42.703 50.461-76.223 50.461-11.113 0-21.768-2.255-31.579-6.297l-109.895-45.953v-16.154l115.616 48.317c8.445 3.511 17.677 5.196 26.328 5.196 26.229 0 51.456-15.529 62.214-41.274 0.777-1.941 1.412-3.936 2.043-5.921 0.211-0.735 0.318-1.478 0.532-2.203 0.317-1.205 0.625-2.413 0.891-3.677 0.207-0.946 0.362-1.878 0.528-2.834 0.159-0.949 0.318-1.882 0.422-2.886 0.156-1.102 0.317-2.255 0.362-3.352 0.052-0.581 0.052-1.153 0.103-1.737 1.419-27.437-13.896-54.024-40.708-65.204L326.927 561.74l-137.388 27.591v256.781h91.118L628.55 911.15l346.524-186.685c32.622-17.57 44.802-57.86 27.178-90.489l0.01-0.017z m-831.694-69.757c0-24.702-20.035-44.744-44.744-44.744h-67.41c-24.702 0-44.744 20.031-44.744 44.744v314.895c0 24.754 20.035 44.799 44.744 44.799h67.403c24.706 0 44.751-20.035 44.751-44.799V564.202z m283.554-43.015h421.086v46.791H454.122v-46.791z m389.972-124.765H741.929c-9.214-10.872-15.76-23.197-16.83-37.021-4.385-56.527 56.537-83.594 56.537-152.926 0-58.882-44.84-106.371-116.97-106.371-72.132 0-116.969 47.489-116.969 106.371 0 69.332 60.919 96.399 56.534 152.926-1.07 13.824-7.613 26.149-16.827 37.021H485.236c-17.183 0-31.113 13.934-31.113 31.117v62.458h421.086v-62.458c-0.001-17.183-13.931-31.117-31.115-31.117z m0 0" p-id="48813"></path></svg>