<?xml version="1.0" standalone="no"?><!DOCTYPE svg PUBLIC "-//W3C//DTD SVG 1.1//EN" "http://www.w3.org/Graphics/SVG/1.1/DTD/svg11.dtd"><svg t="1586767204155" class="icon" viewBox="0 0 1024 1024" version="1.1" xmlns="http://www.w3.org/2000/svg" p-id="48083" xmlns:xlink="http://www.w3.org/1999/xlink" width="200" height="200"><defs><style type="text/css"></style></defs><path d="M64 1024V128h128v128h640V128h128v896H64z m128-85.333333h512v-85.333334H192v85.333334z m341.333333-597.546667l-170.069333 171.093333H490.666667V640h85.333333v-127.786667h127.36L533.333333 341.12zM832 682.666667H192v85.333333h640v-85.333333zM234.666667 128h128a128 128 0 0 1 128-128h42.666666a128 128 0 0 1 128 128h128v85.333333H234.666667V128z m277.333333 42.666667a64 64 0 1 0-0.042667-128.042667A64 64 0 0 0 512 170.666667z" p-id="48084"></path></svg>