<?xml version="1.0" standalone="no"?><!DOCTYPE svg PUBLIC "-//W3C//DTD SVG 1.1//EN" "http://www.w3.org/Graphics/SVG/1.1/DTD/svg11.dtd"><svg t="1586767064894" class="icon" viewBox="0 0 1067 1024" version="1.1" xmlns="http://www.w3.org/2000/svg" p-id="40648" xmlns:xlink="http://www.w3.org/1999/xlink" width="208.3984375" height="200"><defs><style type="text/css"></style></defs><path d="M51.236975 1023.886056V922.095772H630.492056a244.79044 244.79044 0 0 0 113.602515 101.904228z m790.925698-1.481277a222.191478 222.191478 0 1 1 0.493758 0z m-10.824713-355.734253a16.901745 16.901745 0 0 0-8.469864 14.812765v121.920452a17.737337 17.737337 0 0 0 10.21701 15.800283l130.50426 58.71932a14.584876 14.584876 0 0 0 6.798679 1.139444 17.129634 17.129634 0 0 0 15.876246-10.179028 15.762301 15.762301 0 0 0-9.077567-21.459519l-120.325231-54.199528v-111.779405a16.939726 16.939726 0 0 0-8.469863-14.812765 17.167615 17.167615 0 0 0-17.129633 0zM0 868.655873v-127.085929A127.807576 127.807576 0 0 1 128.301335 614.446034h230.167582v-123.021914a256.222856 256.222856 0 1 1 206.049362-1.177425l-1.785128 124.199339h125.338782a242.017794 242.017794 0 0 0-80.140857 254.209839z" p-id="40649"></path></svg>