<?xml version="1.0" standalone="no"?><!DOCTYPE svg PUBLIC "-//W3C//DTD SVG 1.1//EN" "http://www.w3.org/Graphics/SVG/1.1/DTD/svg11.dtd"><svg t="1586767107739" class="icon" viewBox="0 0 1024 1024" version="1.1" xmlns="http://www.w3.org/2000/svg" p-id="42993" xmlns:xlink="http://www.w3.org/1999/xlink" width="200" height="200"><defs><style type="text/css"></style></defs><path d="M691.943 790.504v-65.116c-48.311-21.005-79.82-69.317-79.82-126.031 0-75.618 60.915-136.533 134.433-136.533 73.518 0 134.433 60.915 134.433 136.533 0 56.714-33.609 105.026-79.82 126.031v65.116h119.729c37.809 0 67.216 29.407 67.216 69.317v67.216h-483.118v-69.317c0-37.809 29.407-67.216 67.216-67.216h119.729zM532.304 954.344h428.505v54.613h-428.505v-54.613z" p-id="42994"></path><path d="M673.039 0.711h-525.129c-58.814 0-105.026 46.211-105.026 105.026v777.189c0 58.814 46.211 105.026 105.026 105.026h281.469v-130.231c0-77.719 63.015-142.835 140.734-144.935-21.005-33.609-33.609-73.518-33.609-115.529 0-117.629 94.523-212.151 210.051-212.151 10.502 0 21.005 2.1 31.507 2.1v-281.469c0-58.814-46.211-105.026-105.026-105.026zM483.993 462.824h-273.067c-23.106 0-42.011-18.905-42.011-42.011s18.905-42.011 42.011-42.011h273.067c23.106 0 42.011 18.905 42.011 42.011s-18.905 42.011-42.011 42.011zM631.028 273.778h-420.102c-23.106 0-42.011-18.905-42.011-42.011s18.905-42.011 42.011-42.011h420.102c23.106 0 42.011 18.905 42.011 42.011s-18.905 42.011-42.011 42.011z" p-id="42995"></path></svg>