<?xml version="1.0" standalone="no"?><!DOCTYPE svg PUBLIC "-//W3C//DTD SVG 1.1//EN" "http://www.w3.org/Graphics/SVG/1.1/DTD/svg11.dtd"><svg t="1586769178543" class="icon" viewBox="0 0 1024 1024" version="1.1" xmlns="http://www.w3.org/2000/svg" p-id="25357" xmlns:xlink="http://www.w3.org/1999/xlink" width="200" height="200"><defs><style type="text/css"></style></defs><path d="M102.4 0v202.7s108.5 36.9 246.4 57.2c20.6-71.1 85.5-123.4 163.2-123.4 77.9 0 142.8 52.5 163.3 123.8 137.8-20.3 246.3-57.7 246.3-57.7V0H102.4z" p-id="25358"></path><path d="M608 313.6c0-53-43-96-96-96s-96 43-96 96 43 96 96 96 96-43 96-96z" p-id="25359"></path><path d="M680.6 327.4c-10 84.6-81.3 150.5-168.6 150.5-87.5 0-158.8-66.1-168.7-150.9-135.3-21.1-240.9-58.1-240.9-58.1V1024h819.2V268.8s-105.7 37.5-241 58.6zM512 955.7H238.9v-70.4H512v70.4z m0-136.5H238.9v-70.4H512v70.4z m273.1-136.5H238.9v-68.3H785v68.3z" p-id="25360"></path></svg>