<?xml version="1.0" standalone="no"?><!DOCTYPE svg PUBLIC "-//W3C//DTD SVG 1.1//EN" "http://www.w3.org/Graphics/SVG/1.1/DTD/svg11.dtd"><svg t="1586770542496" class="icon" viewBox="0 0 1024 1024" version="1.1" xmlns="http://www.w3.org/2000/svg" p-id="35798" xmlns:xlink="http://www.w3.org/1999/xlink" width="200" height="200"><defs><style type="text/css"></style></defs><path d="M925.401212 142.493737c-13.239596 0-124.444444-13.239596-217.134545-13.239596-82.075152 0-137.69697 15.890101-156.224647 26.479192-7.938586 5.288081-23.828687 13.239596-37.068283 23.828687-13.239596-13.239596-29.129697-18.540606-34.417777-23.828687-21.191111-10.589091-74.136566-26.479192-156.224647-26.479192-95.327677 0-206.545455 13.239596-219.772121 13.239596-39.718788 2.650505-71.49899 34.417778-71.49899 74.149495v590.480808c0 39.718788 31.767273 71.49899 71.49899 74.136566h2.650505c10.589091-2.650505 66.19798-7.951515 127.094949-13.239596 108.567273-7.951515 150.923636 0 166.813738 2.650505 7.938586 0 18.540606 5.288081 29.129697 7.938586 23.828687 7.938586 50.307879 15.877172 79.437576 15.877172 23.828687 0 50.307879-7.938586 74.136565-15.877172 18.540606-5.30101 37.068283-10.60202 45.019798-10.60202 2.650505 0 5.288081 0 7.938586-2.650505 124.444444-18.540606 272.730505 10.589091 272.730505 10.589091h5.30101c39.718788 0 74.136566-31.767273 74.136566-74.136566v-585.179798c7.938586-39.718788-23.828687-71.486061-63.547475-74.136566zM133.66303 372.854949C162.792727 364.916364 221.052121 351.676768 313.729293 351.676768c55.608889 0 92.677172 10.589091 132.39596 31.780202 13.239596 7.938586 15.890101 23.828687 10.58909 34.417777-5.288081 7.938586-13.239596 13.239596-23.828686 13.239596-5.288081 0-7.938586 0-13.239596-2.650505-31.767273-18.540606-60.909899-23.828687-108.567273-23.828686-87.376162 0-140.334545 13.239596-166.813737 21.178181-13.239596 2.650505-29.129697-5.288081-31.780203-18.540606 0-18.527677 7.951515-31.767273 21.178182-34.417778z m328.352324 254.202829c-5.30101 10.589091-13.239596 15.890101-23.828687 15.890101-2.650505 0-7.938586 0-10.589091-2.650505 0 0-60.909899-26.479192-111.217778-26.479192-84.738586 0-116.505859 7.951515-148.286061 15.890101-5.30101 2.650505-10.589091 2.650505-15.890101 5.30101-13.239596 2.650505-29.129697-5.30101-31.767272-18.540606-2.650505-13.239596 5.288081-29.129697 18.540606-31.767273 5.288081-2.650505 10.589091-2.650505 15.890101-5.30101 34.417778-7.938586 68.848485-18.540606 161.525656-18.540606 63.547475 0 129.745455 29.129697 135.046465 31.767273 10.576162 7.951515 15.864242 21.191111 10.576162 34.430707z m450.146262-230.361212c-2.650505 13.239596-15.890101 23.828687-31.780202 21.178181-66.19798-13.239596-113.855354-21.178182-174.765252-18.527676-58.246465 0-97.978182 21.191111-100.615758 21.191111-2.650505 2.650505-7.938586 2.650505-13.239596 2.650505-7.938586 0-18.540606-5.30101-23.828687-13.239596-7.938586-13.239596-2.650505-29.129697 10.589091-34.417778 2.650505 0 52.958384-29.129697 124.457374-29.129697 66.19798-5.30101 116.505859 5.288081 188.004848 18.540606 15.877172 2.624646 23.815758 18.514747 21.178182 31.754344z m0 0" p-id="35799"></path></svg>