<?xml version="1.0" standalone="no"?><!DOCTYPE svg PUBLIC "-//W3C//DTD SVG 1.1//EN" "http://www.w3.org/Graphics/SVG/1.1/DTD/svg11.dtd"><svg t="1586768969367" class="icon" viewBox="0 0 1024 1024" version="1.1" xmlns="http://www.w3.org/2000/svg" p-id="17408" xmlns:xlink="http://www.w3.org/1999/xlink" width="200" height="200"><defs><style type="text/css"></style></defs><path d="M174.08 731.136c116.736 2.048 217.088 20.48 290.816 49.152h4.096c2.048 0 4.096 0 6.144-2.048s4.096-6.144 4.096-8.192V215.04c0-4.096-2.048-8.192-6.144-10.24L178.176 90.112c-4.096-2.048-6.144 0-10.24 2.048-2.048 2.048-4.096 4.096-4.096 8.192v620.544c0 6.144 4.096 10.24 10.24 10.24z" p-id="17409"></path><path d="M1017.856 190.464c-2.048-2.048-6.144-2.048-8.192-2.048l-104.448 30.72c-4.096 2.048-8.192 6.144-8.192 10.24v534.528s0 8.192-8.192 8.192h-16.384c-83.968 0-239.616 8.192-342.016 67.584l-20.48 12.288-20.48-12.288c-102.4-59.392-258.048-67.584-342.016-67.584h-22.528c-2.048 0-2.048-4.096-2.048-4.096V229.376c0-4.096-2.048-8.192-8.192-10.24l-102.4-30.72c-4.096 0-6.144 0-8.192 2.048S0 194.56 0 198.656v647.168c0 2.048 2.048 6.144 4.096 8.192s4.096 2.048 8.192 2.048c28.672-4.096 75.776-6.144 131.072-6.144 120.832 0 217.088 18.432 278.528 51.2 8.192 4.096 63.488 32.768 88.064 32.768 24.576 0 77.824-28.672 88.064-32.768 63.488-32.768 159.744-51.2 278.528-51.2 55.296 0 102.4 4.096 133.12 6.144 2.048 0 6.144 0 8.192-2.048s4.096-4.096 4.096-8.192V198.656c0-4.096-2.048-6.144-4.096-8.192z" p-id="17410"></path><path d="M544.768 780.288c2.048 2.048 4.096 2.048 6.144 2.048h4.096c73.728-30.72 174.08-47.104 290.816-49.152 6.144 0 10.24-4.096 10.24-10.24V100.352c0-4.096-2.048-6.144-4.096-8.192s-6.144-2.048-10.24-2.048L546.816 206.848c-4.096 2.048-6.144 6.144-6.144 10.24v555.008c0 4.096 2.048 6.144 4.096 8.192z" p-id="17411"></path></svg>