<?xml version="1.0" standalone="no"?><!DOCTYPE svg PUBLIC "-//W3C//DTD SVG 1.1//EN" "http://www.w3.org/Graphics/SVG/1.1/DTD/svg11.dtd"><svg t="1587127118751" class="icon" viewBox="0 0 1024 1024" version="1.1" xmlns="http://www.w3.org/2000/svg" p-id="14945" xmlns:xlink="http://www.w3.org/1999/xlink" width="200" height="200"><defs><style type="text/css"></style></defs><path d="M527.135744 187.080704c-195.718144 0-365.336576 113.954816-448.667648 280.403968C161.798144 633.9072 331.4176 747.8784 527.135744 747.8784c195.71712 0 365.278208-113.9712 448.666624-280.393728-83.331072-166.449152-252.950528-280.403968-448.6656-280.403968m221.236224 148.676608c52.686848 33.614848 97.381376 78.67392 130.953216 131.72736-33.57184 53.00224-78.26432 98.08896-130.952192 131.700736-66.271232 42.266624-142.75584 64.58368-221.237248 64.58368-78.483456 0-154.970112-22.319104-221.238272-64.58368-52.690944-33.610752-97.381376-78.698496-130.953216-131.700736 33.57184-53.025792 78.26432-98.112512 130.953216-131.72736a369.646592 369.646592 0 0 1 10.40384-6.365184c-8.732672 23.92064-13.498368 49.768448-13.498368 76.741632 0 123.908096 100.446208 224.324608 224.333824 224.324608 123.886592 0 224.3328-100.416512 224.3328-224.324608 0-26.973184-4.765696-52.795392-13.50144-76.715008a318.34112 318.34112 0 0 1 10.40384 6.33856m-221.237248 42.336256c0 46.468096-37.654528 84.122624-84.125696 84.122624s-84.124672-37.65248-84.124672-84.122624c0-46.431232 37.654528-84.1216 84.124672-84.1216s84.125696 37.691392 84.125696 84.1216" p-id="14946"></path></svg>