<?xml version="1.0" standalone="no"?><!DOCTYPE svg PUBLIC "-//W3C//DTD SVG 1.1//EN" "http://www.w3.org/Graphics/SVG/1.1/DTD/svg11.dtd"><svg t="1587128946750" class="icon" viewBox="0 0 1024 1024" version="1.1" xmlns="http://www.w3.org/2000/svg" p-id="31941" xmlns:xlink="http://www.w3.org/1999/xlink" width="200" height="200"><defs><style type="text/css"></style></defs><path d="M496.2 45.8c-253.9 0-460 206.1-460 460s206.1 460 460 460 460-206.1 460-460c0-254.7-205.3-460-460-460z m83.5 199.4c24.7-14.5 55.4-6 69.9 18.7 14.5 24.7 6 55.4-18.7 69.9s-55.4 6-69.9-18.7c-13.7-23.9-5.2-55.5 18.7-69.9zM309.6 519.5c-33.2 19.6-76.7 7.7-95.4-25.6-19.6-33.2-7.7-76.7 25.6-95.4 33.2-19.6 76.7-7.7 95.4 25.6 19.6 33.2 8.5 75.8-25.6 95.4z m98.8-219c25.6-14.5 57.9-6 72.4 19.6 14.5 25.6 6 57.9-19.6 72.4-25.6 14.5-57.9 6-72.4-19.6-14.4-25.5-5.9-57.9 19.6-72.4z m331.4 393.6c-12.8 30.7-36.6 53.7-67.3 66.4-29.8 11.9-66.4 9.4-85.2-19.6-18.7-28.1-12.8-68.1-44.3-86.9-23.9-14.5-52.8-12.8-79.2-11.9-17 0.9-35.8-10.2-47.7-21.3-52-46.9-39.2-128.6 14.5-168.7 19.6-14.5 41.7-26.4 63.9-36.6 21.3-9.4 43.4-17 67.3-18.7 34.1-1.7 66.4 10.2 92 32.4 10.2 8.5 18.7 18.7 26.4 30.7 8.5 12.8 16.2 25.6 23.9 38.3 14.5 25.6 26.4 52 35.8 80.1 11.8 36.6 16.1 78.3-0.1 115.8z" p-id="31942"></path></svg>