<?xml version="1.0" standalone="no"?><!DOCTYPE svg PUBLIC "-//W3C//DTD SVG 1.1//EN" "http://www.w3.org/Graphics/SVG/1.1/DTD/svg11.dtd"><svg t="1582698693640" class="icon" viewBox="0 0 1024 1024" version="1.1" xmlns="http://www.w3.org/2000/svg" p-id="16712" xmlns:xlink="http://www.w3.org/1999/xlink" width="200" height="200"><defs><style type="text/css"></style></defs><path d="M1014.97579 476.616s-0.579-13.948-123.804-134.632c-176.136-159.6-333.138-182.515-449.912-167.373-116.775 15.142-204.649 81.025-211.677 85.121C174.12379 292.061 17.51279 452.884 8.14379 472.936c-22.263 47.878 8.202 95.754 8.202 95.754s252.685 284.643 482.326 284.643 338.607-103.358 384.691-141.001c46.083-37.65 102.708-105.993 131.614-146.502 20.311-45.426-0.001-89.214-0.001-89.214zM512.00479 735.133c-129.611 0-234.683-105.825-234.683-236.364C277.32179 368.225 382.39279 262.4 512.00379 262.4c129.609 0 234.678 105.825 234.678 236.369 0 130.539-105.068 236.364-234.677 236.364z" p-id="16713" ></path><path d="M598.87479 484.573c-48.104 0-87.1-38.996-87.1-87.1 0-14 3.308-27.225 9.177-38.945-2.96-0.187-5.941-0.293-8.948-0.293-77.19 0-139.765 62.575-139.765 139.765S434.81379 637.765 512.00379 637.765 651.76879 575.19 651.76879 498c0-9.98-1.054-19.713-3.043-29.102-14.124 9.876-31.309 15.675-49.851 15.675z" p-id="16714" ></path></svg>
