<?xml version="1.0" standalone="no"?><!DOCTYPE svg PUBLIC "-//W3C//DTD SVG 1.1//EN" "http://www.w3.org/Graphics/SVG/1.1/DTD/svg11.dtd"><svg t="1586770315014" class="icon" viewBox="0 0 1024 1024" version="1.1" xmlns="http://www.w3.org/2000/svg" p-id="33794" xmlns:xlink="http://www.w3.org/1999/xlink" width="200" height="200"><defs><style type="text/css"></style></defs><path d="M496.013399 797.279349 496.013399 189.147918c0 0-82.636069-69.715805-199.839421-69.715805-117.320009 0-199.955054 61.97654-199.955054 61.97654l0 615.870696c0 0 82.635045-60.055794 199.955054-60.055794C413.37733 737.223554 496.013399 797.279349 496.013399 797.279349zM926.65237 797.279349 926.65237 189.147918c0 0-82.637092-69.715805-199.956078-69.715805-117.204375 0-199.897749 61.97654-199.897749 61.97654l0 615.870696c0 0 82.693374-60.055794 199.897749-60.055794C844.015278 737.223554 926.65237 797.279349 926.65237 797.279349zM988.162282 243.385193l-30.785144 0 0 588.754105L588.309478 832.139298l0 30.988782L434.560792 863.128079l0-30.988782L65.492108 832.139298 65.492108 243.385193 34.706965 243.385193l0 619.742886 369.068683 0 0 30.987758 217.239719 0-1.918699-30.987758 369.066637 0L988.163305 243.385193z" p-id="33795"></path></svg>