<?xml version="1.0" standalone="no"?><!DOCTYPE svg PUBLIC "-//W3C//DTD SVG 1.1//EN" "http://www.w3.org/Graphics/SVG/1.1/DTD/svg11.dtd"><svg t="1587126495340" class="icon" viewBox="0 0 1024 1024" version="1.1" xmlns="http://www.w3.org/2000/svg" p-id="9838" xmlns:xlink="http://www.w3.org/1999/xlink" width="200" height="200"><defs><style type="text/css"></style></defs><path d="M323.584 600.064c-17.408 17.408-17.408 46.08 0 63.488 17.408 17.408 46.08 17.408 63.488 0 8.192-8.192 13.312-19.968 13.312-31.744 0-11.776-4.608-23.552-13.312-31.744-17.408-17.92-46.08-17.92-63.488 0z m487.424-506.368H212.992c-66.048 0-119.296 53.76-119.296 119.296v597.504c0 66.048 53.76 119.296 119.296 119.296h597.504c66.048 0 119.296-53.76 119.296-119.296V212.992c0.512-65.536-53.248-119.296-118.784-119.296z m-455.68 642.56c-57.856 0-104.448-46.592-104.448-104.448 0-57.856 46.592-104.448 104.448-104.448 57.856 0 104.448 46.592 104.448 104.448 0 57.344-46.592 104.448-104.448 104.448zM465.92 353.792L346.624 473.6c-11.776 11.776-30.72 11.776-41.984 0L244.224 413.696c-11.776-11.776-11.776-30.72 0-41.984 11.776-11.776 30.72-11.776 41.984 0l38.4 38.912L422.912 312.32c11.776-11.264 30.208-11.264 41.984 0 12.288 10.752 12.8 29.696 1.024 41.472z m307.712 307.712h-239.104c-16.384 0-29.696-13.312-29.696-29.696 0-16.384 13.312-29.696 29.696-29.696h239.104c16.384 0 29.696 13.312 29.696 29.696 0 16.384-13.312 29.696-29.696 29.696z m0-239.104h-239.104c-16.384 0-29.696-13.312-29.696-29.696 0-16.384 13.312-29.696 29.696-29.696h239.104c16.384 0 29.696 13.312 29.696 29.696 0 16.384-13.312 29.696-29.696 29.696z" p-id="9839"></path></svg>