<?xml version="1.0" standalone="no"?><!DOCTYPE svg PUBLIC "-//W3C//DTD SVG 1.1//EN" "http://www.w3.org/Graphics/SVG/1.1/DTD/svg11.dtd"><svg t="1587129151294" class="icon" viewBox="0 0 1024 1024" version="1.1" xmlns="http://www.w3.org/2000/svg" p-id="32087" xmlns:xlink="http://www.w3.org/1999/xlink" width="200" height="200"><defs><style type="text/css"></style></defs><path d="M938.4 191.5c-0.8-35.1-15-68.1-40.1-92.9-25.1-24.9-58.2-38.7-93.2-38.7H217.2c-72.6 0-131.7 59.1-131.7 131.7v640.8c0 72.6 59.1 131.7 131.7 131.7h589.5c72.6 0 131.7-59.1 131.7-131.7V191.5zM284.8 369.1V131h454.4v238.1H284.8zM156.6 191.6c0-32.2 25.3-58.7 57.1-60.5v309.1h596.5V131.1c31.8 1.8 57.1 28.3 57.1 60.5v637.3h-1.6v3.5c0 33.4-27.2 60.6-60.6 60.6H217.2c-33.4 0-60.6-27.2-60.6-60.6V191.6z" p-id="32088"></path><path d="M646.6 162.5c-19.6 0-35.5 15.9-35.5 35.5v107.3c0 19.6 15.9 35.5 35.5 35.5s35.5-15.9 35.5-35.5V198c0-19.6-15.9-35.5-35.5-35.5z" p-id="32089"></path></svg>