<?xml version="1.0" standalone="no"?><!DOCTYPE svg PUBLIC "-//W3C//DTD SVG 1.1//EN" "http://www.w3.org/Graphics/SVG/1.1/DTD/svg11.dtd"><svg t="1586767628946" class="icon" viewBox="0 0 1088 1024" version="1.1" xmlns="http://www.w3.org/2000/svg" p-id="56157" xmlns:xlink="http://www.w3.org/1999/xlink" width="212.5" height="200"><defs><style type="text/css"></style></defs><path d="M986.701987 193.271523h-149.192053V98.331126c0-54.251656-44.07947-98.331126-98.331126-98.331126H345.854305C291.602649 0 247.523179 44.07947 247.523179 98.331126v98.331126H98.331126C44.07947 193.271523 0 237.350993 0 291.602649v145.801325h1085.033113V291.602649c0-54.251656-44.07947-98.331126-98.331126-98.331126z m-247.523179 0H345.854305V122.066225c0-13.562914 10.172185-23.735099 20.34437-23.735099H715.443709c13.562914 0 23.735099 10.172185 23.735099 20.344371v74.596026z m-23.735099 366.198676c0-6.781457 0-16.953642-3.390729-23.7351h372.980133v389.933775c0 54.251656-44.07947 98.331126-98.331126 98.331126H98.331126c-54.251656 0-98.331126-44.07947-98.331126-98.331126V535.735099h372.980132c-3.390728 6.781457-6.781457 16.953642-3.390728 23.7351 0 94.940397 81.377483 172.927152 176.317881 169.536424 91.549669 0 169.536424-74.596026 169.536424-169.536424z m-98.331126 0c0 40.688742-33.907285 74.596026-74.596027 71.205298-40.688742 0-71.205298-33.907285-71.205298-71.205298 0-6.781457 0-16.953642 3.390729-23.7351h135.629139c6.781457 6.781457 6.781457 13.562914 6.781457 23.7351z" p-id="56158"></path></svg>