<?xml version="1.0" standalone="no"?><!DOCTYPE svg PUBLIC "-//W3C//DTD SVG 1.1//EN" "http://www.w3.org/Graphics/SVG/1.1/DTD/svg11.dtd"><svg t="1587126890051" class="icon" viewBox="0 0 1024 1024" version="1.1" xmlns="http://www.w3.org/2000/svg" p-id="14785" xmlns:xlink="http://www.w3.org/1999/xlink" width="200" height="200"><defs><style type="text/css"></style></defs><path d="M760.944738 0c88.976724 0 159.090675 57.173211 159.090675 164.939597v235.12666c0 18.862773-12.94074 38.310438-31.803512 38.310439-25.369699-6.506926-38.310438-18.789662-38.310439-38.310439V171.446523c0-70.187063-63.607026-101.917464-95.48365-101.917464h-552.723118c-44.15936 0-88.976724 44.15936-95.410539 127.214051v648.206769c0 97.530773 64.118806 101.771241 91.901186 101.990575h200.325574c18.862773 0 31.803513 18.789662 31.803513 38.310438 0 19.447665-12.94074 38.310438-31.803513 38.310439H195.865772C138.765672 1023.561331 36.775096 985.250892 36.775096 883.918321V190.9673C36.775096 57.758104 119.244895 0 195.865772 0h565.078966zM699.1655 636.508925c121.950021 0 221.089247 92.851635 220.796802 155.873768 0 62.949022-98.84678 155.873768-220.796802 155.873769s-220.796801-92.851635-220.796801-155.873769c0-63.022133 98.84678-155.873768 220.796801-155.873768z m0 32.461516c-96.94588 0-175.394545 73.40397-175.394545 123.412252 0 49.935171 78.448665 123.33914 175.394545 123.33914s175.321434-73.40397 175.321434-123.33914c0-50.008282-78.375553-123.412252-175.321434-123.412252z m0 45.475368c46.718264 0 84.663144 35.385977 84.44381 78.741111 0 43.428245-37.725546 78.814222-84.44381 78.814222s-84.44381-35.385977-84.443809-78.814222c0-43.355134 37.725546-78.741111 84.443809-78.741111zM449.855205 578.019706c18.789662 0 31.803513 13.013851 31.803513 31.803513a30.341282 30.341282 0 0 1-31.803513 31.876624H258.887905a30.341282 30.341282 0 0 1-31.803513-31.876624c0.658004-18.789662 12.94074-31.803513 31.803513-31.803513H449.855205z m253.916321-190.309296c18.862773 0 31.803513 13.013851 31.803513 31.876624a30.341282 30.341282 0 0 1-31.803513 31.803513H258.887905a30.341282 30.341282 0 0 1-31.803513-31.803513c0.658004-19.520777 12.94074-31.876624 31.803513-31.876624h444.883621z m0-190.894188c18.862773 0 31.803513 12.94074 31.803513 31.803512a30.341282 30.341282 0 0 1-31.803513 31.803513H258.887905a30.341282 30.341282 0 0 1-31.803513-31.803513c0.658004-18.862773 12.94074-31.803513 31.803513-31.803512h444.883621z" p-id="14786"></path></svg>