<?xml version="1.0" standalone="no"?><!DOCTYPE svg PUBLIC "-//W3C//DTD SVG 1.1//EN" "http://www.w3.org/Graphics/SVG/1.1/DTD/svg11.dtd"><svg t="1587126290525" class="icon" viewBox="0 0 1024 1024" version="1.1" xmlns="http://www.w3.org/2000/svg" p-id="4505" xmlns:xlink="http://www.w3.org/1999/xlink" width="200" height="200"><defs><style type="text/css"></style></defs><path d="M926.77 166h-830a32 32 0 0 0-32 32v628a32 32 0 0 0 32 32h830a32 32 0 0 0 32-32V198a32 32 0 0 0-32-32z m-32 628h-766V230h766z" p-id="4506"></path><path d="M292.586464 478.605607m-88.162073 88.162073a124.68 124.68 0 1 0 176.324147-176.324147 124.68 124.68 0 1 0-176.324147 176.324147Z" p-id="4507"></path><path d="M498.51 445.27h321.06a32 32 0 1 0 0-64H498.51a32 32 0 0 0 0 64zM498.51 583.94h213.07a32 32 0 0 0 0-64H498.51a32 32 0 0 0 0 64z" p-id="4508"></path></svg>