<?xml version="1.0" standalone="no"?><!DOCTYPE svg PUBLIC "-//W3C//DTD SVG 1.1//EN" "http://www.w3.org/Graphics/SVG/1.1/DTD/svg11.dtd"><svg t="1586769141899" class="icon" viewBox="0 0 1024 1024" version="1.1" xmlns="http://www.w3.org/2000/svg" p-id="24023" xmlns:xlink="http://www.w3.org/1999/xlink" width="200" height="200"><defs><style type="text/css"></style></defs><path d="M901.9 191.8H121.8c-32.3 0-58.5 26.2-58.5 58.5v526.1c0 32.3 26.2 58.5 58.5 58.5h780.1c32.3 0 58.5-26.2 58.5-58.5V250.2c0-32.2-26.2-58.4-58.5-58.4z m-744 510.5c0-87.1 68.7-158.2 154.8-162-56.3-3.8-100.8-50.6-100.8-107.9 0-59.7 48.4-108.1 108.1-108.1s108.1 48.4 108.1 108.1c0 57.3-44.5 104.1-100.8 107.9 86.2 3.8 154.8 74.9 154.8 162H157.9z m739.7-29.1c0 17.7-14.3 32-32 32h-256c-17.7 0-32-14.3-32-32s14.3-32 32-32h256c17.7 0 32 14.3 32 32z m0-191.8c0 17.7-14.3 32-32 32h-256c-17.7 0-32-14.3-32-32s14.3-32 32-32h256c17.7 0 32 14.4 32 32z" p-id="24024"></path></svg>