<?xml version="1.0" standalone="no"?><!DOCTYPE svg PUBLIC "-//W3C//DTD SVG 1.1//EN" "http://www.w3.org/Graphics/SVG/1.1/DTD/svg11.dtd"><svg t="1586768836065" class="icon" viewBox="0 0 1024 1024" version="1.1" xmlns="http://www.w3.org/2000/svg" p-id="13441" xmlns:xlink="http://www.w3.org/1999/xlink" width="200" height="200"><defs><style type="text/css"></style></defs><path d="M876.01058 250.8c0-52.2-52-52.2-52-52.2H199.91058s-52 0-52 52.2V303H876.01058v-52.2zM720.01058 94H304.01058s-52 0-52 52.2h520C772.01058 94 719.91058 94 720.01058 94z m260 209l-30.8-30.9v83.2H74.71058v-83.2L43.91058 303C13.21058 333.9-8.88942 342.3 3.51058 407.6c12.3 65 72 421.9 80.8 470.1 9.8 53 63.6 52.2 63.6 52.2H876.01058s53.8 0.7 63.6-52.2c8.9-48.3 68.5-405.1 80.9-470.1 12.4-65.3-9.7-73.6-40.5-104.6zM720.01058 585.1s0 52.2-52.1 52.2h-312c-52 0-52-52.2-52-52.2V480.7h72.8v83.6H647.01058v-83.6h73v104.4z" p-id="13442"></path></svg>