<?xml version="1.0" standalone="no"?><!DOCTYPE svg PUBLIC "-//W3C//DTD SVG 1.1//EN" "http://www.w3.org/Graphics/SVG/1.1/DTD/svg11.dtd"><svg t="1586766542164" class="icon" viewBox="0 0 1024 1024" version="1.1" xmlns="http://www.w3.org/2000/svg" p-id="24227" xmlns:xlink="http://www.w3.org/1999/xlink" width="200" height="200"><defs><style type="text/css"></style></defs><path d="M954.13248 199.68 83.52256 199.68C56.71424 199.68 35.84 219.70432 35.84 246.50752L35.84 389.12l967.68 0L1003.52 246.50752C1003.52 219.70432 980.93568 199.68 954.13248 199.68zM183.9616 331.9552c-6.90688 7.12704-16.70656 11.06432-26.44992 11.06432-9.75872 0-19.50208-3.9424-26.47552-10.89024-7.11168-7.13728-11.05408-16.7168-11.05408-26.63936 0-9.95328 3.9424-19.51744 10.87488-26.46528 14.08512-14.08512 39.22432-14.08512 53.10464-0.19456 7.15264 7.1424 11.07968 16.91136 11.07968 26.65472C195.04128 315.22304 191.11424 324.992 183.9616 331.9552zM296.7552 331.9552c-7.11168 7.12704-16.91136 11.06432-26.65472 11.06432-9.75872 0-19.50208-3.9424-26.44992-10.89024-7.11168-7.13728-11.07968-16.91136-11.07968-26.63936 0-9.74336 3.968-19.51744 10.89024-26.46528 14.06976-14.08512 39.21408-14.08512 53.12-0.19456 7.13728 7.1424 11.05408 16.91136 11.05408 26.65472C307.63008 315.22304 303.7184 324.992 296.7552 331.9552zM409.16992 331.9552c-6.93248 7.12704-16.49664 11.06432-26.46528 11.06432-9.74336 0-19.50208-3.9424-26.46528-11.06432-7.11168-6.95808-11.07968-16.5376-11.07968-26.46528 0-9.74336 3.968-19.51744 10.90048-26.46528 14.07488-14.08512 39.22432-14.08512 53.10464-0.19456 7.15264 7.1424 11.07968 16.91136 11.07968 26.65472C420.2496 315.41248 416.32256 324.992 409.16992 331.9552z" p-id="24228"></path><path d="M34.98496 438.61504l0 494.18752c0 26.8032 21.72928 48.53248 48.53248 48.53248l870.61504 0c26.8032 0 48.53248-21.72928 48.53248-48.53248L1002.66496 438.61504 34.98496 438.61504zM527.36 834.56 184.32 834.56c-14.14144 0-25.6-11.45856-25.6-25.6s11.45856-25.6 25.6-25.6l343.04 0c14.14144 0 25.6 11.45856 25.6 25.6S541.50144 834.56 527.36 834.56zM527.36 706.56 184.32 706.56c-14.14144 0-25.6-11.45856-25.6-25.6s11.45856-25.6 25.6-25.6l343.04 0c14.14144 0 25.6 11.45856 25.6 25.6S541.50144 706.56 527.36 706.56zM527.36 578.56 184.32 578.56c-14.14144 0-25.6-11.45856-25.6-25.6s11.45856-25.6 25.6-25.6l343.04 0c14.14144 0 25.6 11.45856 25.6 25.6S541.50144 578.56 527.36 578.56zM875.52 808.96c0 14.14144-11.45856 25.6-25.6 25.6l-250.88 0c-14.14144 0-25.6-11.45856-25.6-25.6l0-256c0-14.14144 11.45856-25.6 25.6-25.6l250.88 0c14.14144 0 25.6 11.45856 25.6 25.6L875.52 808.96z" p-id="24229"></path><path d="M624.64 578.56l199.68 0 0 204.8-199.68 0 0-204.8Z" p-id="24230"></path></svg>