<?xml version="1.0" standalone="no"?><!DOCTYPE svg PUBLIC "-//W3C//DTD SVG 1.1//EN" "http://www.w3.org/Graphics/SVG/1.1/DTD/svg11.dtd"><svg t="1586765549703" class="icon" viewBox="0 0 1024 1024" version="1.1" xmlns="http://www.w3.org/2000/svg" p-id="9367" xmlns:xlink="http://www.w3.org/1999/xlink" width="200" height="200"><defs><style type="text/css"></style></defs><path d="M959.28 695.58c0-19.62-12.77-29.66-34-31.49-13.45 0.1-26.2-6.02-34.54-16.58a45.368 45.368 0 0 1-8.6-37.9c8.06-37.09 6.18-42.29-28.18-61.51l-21.91-12.28c-19.5-16.52-48.7-14.11-65.23 5.38-0.06 0.07-0.12 0.14-0.18 0.22-25.22 19.98-36.56 19.62-60.66 0-16.22-19.78-45.41-22.67-65.19-6.45-0.07 0.06-0.14 0.12-0.22 0.18l-36.56 20.38c-16.61 7.75-24.42 27-17.92 44.13 11.33 37.09-5.15 60.84-44.58 64.92-16.44 1.79-27.42 10.75-28.18 25.58-1.79 29.3-1.79 58.64 0 87.9 0 18.95 12.5 28.63 32.97 30.46 13.31-0.13 25.98 5.78 34.54 16.13a46.15 46.15 0 0 1 9.99 37.27c-7.3 38.93-7.3 43.01 29.25 63.08 7.71 4.48 15.32 9.27 23.43 13.31 18.69 12.94 44.15 9.57 58.82-7.8 28.22-24.46 36.6-24.19 66.21 0 6.94 4.61 13.98 9.09 21.24 13.22 9.07 5.26 20.3 5.09 29.21-0.45 19.8-12.28 39.16-23.88 57.21-36.83a26.09 26.09 0 0 0 10.48-16.53c0.97-5.67 0.44-11.49-1.52-16.89-13.48-33.42 8.11-62.72 46.14-66.35 15.68 0 26.25-10.08 27.01-24.19 1.79-28.94 2.2-57.93 0.9-86.91h0.07zM797.51 798.62c-16.58 16.8-38.98 26.21-62.36 26.12-35.84-0.1-68.05-21.91-81.45-55.15-13.66-33.37-6.14-71.67 19.13-97.4 25.03-25.55 63.12-33.23 96.1-19.4 33.09 14.08 54.52 46.61 54.39 82.57 0 23.7-9.23 46.46-25.8 63.3v-0.04z m-342.54-71.23c0-133.19 107.21-241.16 239.41-241.16 37.18 0 72.44 8.51 103.85 23.74V138.13c0-33.96-27.55-61.69-61.24-61.69H125.24C91.55 76.44 64 104.22 64 138.13v710.44c0 33.91 27.55 61.64 61.24 61.64H538.3a241.345 241.345 0 0 1-83.33-182.87v0.05zM262.46 257.93h339.63c18.68 0 33.78 15.23 33.78 34.05 0 18.77-15.1 33.96-33.78 33.96H262.46c-18.71-0.07-33.81-15.3-33.73-34 0-18.78 15.1-34.01 33.73-34.01z m0 155.77h339.63c18.68 0 33.78 15.23 33.78 34 0.02 18.7-15.08 33.88-33.78 33.96H262.46c-18.69-0.07-33.78-15.27-33.73-33.96 0-18.82 15.1-34.05 33.73-34.05v0.05z m-2.01 223.82c-18.8-0.05-34.01-15.33-33.96-34.14v-0.05c-0.07-18.8 15.11-34.11 33.91-34.18H431.54c18.8 0.07 33.99 15.38 33.91 34.18 0.07 18.8-15.11 34.11-33.91 34.18H260.45z" p-id="9368"></path></svg>