<?xml version="1.0" standalone="no"?><!DOCTYPE svg PUBLIC "-//W3C//DTD SVG 1.1//EN" "http://www.w3.org/Graphics/SVG/1.1/DTD/svg11.dtd"><svg t="1587128893192" class="icon" viewBox="0 0 1024 1024" version="1.1" xmlns="http://www.w3.org/2000/svg" p-id="27429" xmlns:xlink="http://www.w3.org/1999/xlink" width="200" height="200"><defs><style type="text/css"></style></defs><path d="M757.970064 386.067846H745.68732v-87.11201c0-128.835274-104.833627-233.665831-233.700623-233.665831-128.835274 0-233.669924 104.829534-233.669924 233.665831v87.11201h-12.286837c-79.022775 0-143.283334 64.295352-143.283334 143.283334v286.075481c0 78.986959 64.260559 143.282311 143.283334 143.28231h491.940128c79.022775 0 143.283334-64.295352 143.283334-143.28231v-286.075481c-0.001023-78.987982-64.261583-143.283334-143.283334-143.283334z m-413.591713-87.11201c0-92.446505 75.191516-167.603229 167.608346-167.603229 92.446505 0 167.638021 75.156724 167.638021 167.603229v87.11201H344.378351v-87.11201z m485.23338 516.470825c0 39.528272-32.148188 71.641667-71.641667 71.641667H266.029936c-39.493479 0-71.641667-32.112372-71.641667-71.641667v-286.075481c0-39.528272 32.148188-71.641667 71.641667-71.641667h491.940128c39.493479 0 71.641667 32.112372 71.641667 71.641667v286.075481z" p-id="27430"></path><path d="M512.017396 540.474518c-43.131333 0-78.217433 35.051307-78.217432 78.217433 0 35.488259 24.255427 64.304562 56.739258 73.801866v96.347349c0 11.893888 9.620102 21.478174 21.478174 21.478173 11.859096 0 21.478174-9.585309 21.478174-21.478173v-96.347349c32.471552-9.497305 56.704466-38.312584 56.704466-73.801866 0-43.166125-35.051307-78.217433-78.18264-78.217433z m0 113.408933c-19.449981 0-35.261085-15.811104-35.261085-35.1915 0-19.449981 15.811104-35.261085 35.261085-35.261085 19.414165 0 35.226293 15.811104 35.226293 35.261085 0 19.380396-15.812127 35.1915-35.226293 35.1915z" p-id="27431"></path></svg>