<?xml version="1.0" standalone="no"?><!DOCTYPE svg PUBLIC "-//W3C//DTD SVG 1.1//EN" "http://www.w3.org/Graphics/SVG/1.1/DTD/svg11.dtd"><svg t="1587128901437" class="icon" viewBox="0 0 1024 1024" version="1.1" xmlns="http://www.w3.org/2000/svg" p-id="27565" xmlns:xlink="http://www.w3.org/1999/xlink" width="200" height="200"><defs><style type="text/css"></style></defs><path d="M274.286 512q0-14.857 10.857-25.714L596 175.429q10.857-10.858 25.714-10.858T647.43 175.43t10.857 25.714L658.287 365.714l256 0q14.857 0 25.714 10.85700001t10.857 25.71499999L950.858 621.714q0 14.857-10.857 25.71499999t-25.714 10.85700001l-256 0L658.287 822.857q0 14.857-10.85699999 25.714t-25.71500001 10.858T596 848.56999999l-310.85699999-310.85699999q-10.857-10.857-10.85700001-25.714z m-201.143 201.143l0-402.286q0-68 48.286-116.286t116.285-48.285L420.571 146.286q7.429 0 12.858 5.428t5.42799999 12.857q0 2.286 0.57200001 11.429t-2.858 15.143-1.714 13.428-5.714 11.143-11.714 3.715L234.57 219.429q-37.71400001 0-64.571 26.857t-26.857 64.571L143.142 713.143q0 37.71400001 26.857 64.571t64.571 26.857L412.857 804.571l6.572 0.572 6.571 1.714 4.571 3.143 4 5.143 1.143 7.714q0 2.286 0.572 11.429t-2.857 15.14299999-1.715 13.42800001T426 874t-11.714 3.714l-182.857 0q-68 0-116.28600001-48.285t-48.28599999-116.286z" p-id="27566"></path></svg>