<?xml version="1.0" standalone="no"?><!DOCTYPE svg PUBLIC "-//W3C//DTD SVG 1.1//EN" "http://www.w3.org/Graphics/SVG/1.1/DTD/svg11.dtd"><svg t="1586769439816" class="icon" viewBox="0 0 1024 1024" version="1.1" xmlns="http://www.w3.org/2000/svg" p-id="28801" xmlns:xlink="http://www.w3.org/1999/xlink" width="200" height="200"><defs><style type="text/css"></style></defs><path d="M201.045333 223.573333c11.093333-13.653333 22.186667-26.282667 33.336889-38.001777 8.647111-10.467556 17.749333-20.366222 27.306667-29.582223 9.557333-9.329778 16.839111-16.099556 21.788444-20.48a150.186667 150.186667 0 0 1 21.731556-14.791111c7.736889-4.266667 18.090667-6.428444 31.061333-6.428444h400.042667c8.021333 0 17.294222 1.706667 27.761778 5.12 10.524444 3.356444 20.707556 10.24 30.606222 20.764444 4.892444 6.200889 11.377778 13.937778 19.456 23.153778l23.153778 26.851556c8.590222 10.524444 17.237333 21.617778 25.884444 33.336888H200.988444z m751.957334 276.878223c0 19.740444-6.485333 36.408889-19.399111 50.005333-12.970667 13.596444-31.516444 20.366222-55.580445 20.366222H193.649778c-23.495111 0-42.154667-6.826667-56.035556-20.366222a67.242667 67.242667 0 0 1-20.878222-50.062222V368.071111c0-19.740444 6.200889-36.750222 18.545778-50.915555 12.344889-14.222222 32.426667-21.333333 60.188444-21.333334h681.642667c28.387556 0 48.128 7.111111 59.221333 21.333334 11.150222 14.222222 16.668444 31.175111 16.668445 50.915555v132.437333z m-349.127111-66.673778c0-8.021333-1.991111-13.767111-6.030223-17.123556a24.291556 24.291556 0 0 0-16.213333-5.12H488.106667a22.584889 22.584889 0 0 0-16.668445 6.485334 21.447111 21.447111 0 0 0-6.485333 15.758222c0.625778 7.964444 2.958222 13.880889 6.940444 17.635555 4.039111 3.640889 9.443556 5.518222 16.213334 5.518223h93.525333c14.222222 0 21.617778-7.736889 22.243556-23.153778z m346.396444 401.92c0 19.740444-7.566222 36.750222-22.755556 50.915555-15.075556 14.222222-34.360889 21.048889-57.856 20.366223H190.862222c-19.797333 0-37.546667-6.940444-53.248-20.821334-15.758222-13.880889-23.608889-33.166222-23.608889-57.856v-124.131555c0-20.366222 6.257778-37.489778 18.944-51.370667 12.686222-13.880889 32.881778-20.821333 60.700445-20.821333h679.708444c25.941333 0 45.226667 6.940444 57.912889 20.821333 12.629333 13.880889 19.000889 30.72 19.000889 50.460444v132.437334z m-349.184-65.763556c0-6.144-1.991111-11.377778-5.973333-15.758222a21.048889 21.048889 0 0 0-16.213334-6.485333H485.262222a22.584889 22.584889 0 0 0-16.668444 6.485333 21.447111 21.447111 0 0 0-6.485334 15.758222c0 6.200889 2.161778 11.377778 6.485334 15.758222a22.584889 22.584889 0 0 0 16.668444 6.485334h93.582222a21.048889 21.048889 0 0 0 16.213334-6.485334 22.300444 22.300444 0 0 0 5.973333-15.758222z" p-id="28802"></path></svg>