<?xml version="1.0" standalone="no"?><!DOCTYPE svg PUBLIC "-//W3C//DTD SVG 1.1//EN" "http://www.w3.org/Graphics/SVG/1.1/DTD/svg11.dtd"><svg t="1587127733033" class="icon" viewBox="0 0 1024 1024" version="1.1" xmlns="http://www.w3.org/2000/svg" p-id="7402" xmlns:xlink="http://www.w3.org/1999/xlink" width="200" height="200"><defs><style type="text/css"></style></defs><path d="M907.279 116.721C872.132 81.574 826.066 64 780 64H244c-46.066 0-92.132 17.574-127.279 52.721S64 197.934 64 244v536c0 46.066 17.574 92.132 52.721 127.279S197.934 960 244 960h536c46.066 0 92.132-17.573 127.279-52.721C942.426 872.131 960 826.066 960 780V244c0-46.066-17.573-92.132-52.721-127.279zM252 327.92c0-42.344 79.193-76.684 214.662-76.684 135.606 0 230.042 34.34 230.042 76.684v45.928c0 42.344-94.514 76.684-230.042 76.684-135.469 0-214.604-34.398-214.662-76.684V327.92zM474.667 496.4c-24.003 29.053-38.436 66.17-38.622 106.729-116.626-4.725-183.986-36.977-183.986-75.984v-61.364c0-8.004 3.524-15.692 10.84-22.998 31.189 31.121 93.125 53.686 203.016 53.686 3.023 0 5.788-0.069 8.752-0.069z m-7.936 245.489c-135.538 0-214.673-34.34-214.673-76.692V603.9c0-8.017 3.524-15.755 10.84-22.998 28.541 28.412 82.917 49.639 175.981 53.104 7.936 43.791 32.765 81.676 67.606 106.74-12.975 0.69-26.207 1.143-39.754 1.143z m276.915 30.875c-7.798 0-14.926-3.092-20.084-8.25L679.2 719.698c-21.797 14.809-48.144 23.512-76.438 23.512-75.235 0-136.158-61.002-136.158-136.158 0-75.178 61.002-136.17 136.158-136.17 75.179 0 136.158 60.992 136.158 136.17 0 26.324-7.481 50.898-20.398 71.691l45.17 45.623c5.1 5.041 8.25 12.168 8.31 20.045-0.002 15.612-12.723 28.353-28.356 28.353z" p-id="7403"></path></svg>