<?xml version="1.0" standalone="no"?><!DOCTYPE svg PUBLIC "-//W3C//DTD SVG 1.1//EN" "http://www.w3.org/Graphics/SVG/1.1/DTD/svg11.dtd"><svg t="1586769420673" class="icon" viewBox="0 0 1024 1024" version="1.1" xmlns="http://www.w3.org/2000/svg" p-id="27467" xmlns:xlink="http://www.w3.org/1999/xlink" width="200" height="200"><defs><style type="text/css"></style></defs><path d="M203.233 126.026l71.28-61.722h474.97l71.282 61.722H203.233zM172.356 403.915h679.287V156.903H172.356v247.012z m494.026-92.63v30.878h-30.877v-61.754H388.494v61.754h-30.878v-92.631h308.766v61.754zM172.356 681.806h679.287V434.794H172.356v247.012z m494.026-92.63v30.877h-30.877v-61.754H388.494v61.754h-30.878v-92.631h308.766v61.754zM172.356 959.696h679.287V712.682H172.356v247.014z m494.026-92.63v30.877h-30.877v-61.754H388.494v61.754h-30.878v-92.631h308.766v61.754z" p-id="27468"></path></svg>