<?xml version="1.0" standalone="no"?><!DOCTYPE svg PUBLIC "-//W3C//DTD SVG 1.1//EN" "http://www.w3.org/Graphics/SVG/1.1/DTD/svg11.dtd"><svg t="1587127664210" class="icon" viewBox="0 0 1024 1024" version="1.1" xmlns="http://www.w3.org/2000/svg" p-id="6010" xmlns:xlink="http://www.w3.org/1999/xlink" width="200" height="200"><defs><style type="text/css"></style></defs><path d="M516.942507 505.227947c-4.983467 0-9.95328-1.133227-14.513493-3.290453L55.678293 287.716693c-11.700907-5.57056-19.101013-17.421653-19.101013-30.324053 0-12.929707 7.400107-24.767147 19.101013-30.35136L502.429013 12.82048c9.270613-4.38272 20.02944-4.450987 29.259093 0.068267l440.879787 214.2208c11.564373 5.57056 18.909867 17.353387 18.909867 30.26944 0 12.9024-7.345493 24.603307-18.909867 30.255787L531.61984 501.814613C527.045973 504.108373 521.99424 505.227947 516.942507 505.227947L516.942507 505.227947 516.942507 505.227947z" p-id="6011"></path><path d="M516.942507 1014.483627c-5.03808 0-10.007893-1.160533-14.66368-3.372373L61.39904 796.890453c-16.766293-8.15104-23.67488-28.2624-15.551147-45.01504 8.137387-16.684373 28.18048-23.67488 44.946773-15.537493L516.942507 943.445333l426.134187-207.09376c16.779947-8.000853 36.891307-1.06496 45.028693 15.537493 8.055467 16.766293 1.119573 36.864-15.551147 45.01504L531.674453 1011.111253C527.045973 1013.405013 521.99424 1014.483627 516.942507 1014.483627L516.942507 1014.483627M516.942507 1014.483627" p-id="6012"></path><path d="M957.631147 790.44608c-18.582187 0-33.641813-15.07328-33.641813-33.62816L923.989333 263.236267c0-18.582187 15.059627-33.641813 33.641813-33.641813s33.655467 15.07328 33.655467 33.641813l0 493.568C991.286613 775.427413 976.213333 790.44608 957.631147 790.44608L957.631147 790.44608M957.631147 790.44608" p-id="6013"></path><path d="M516.95616 973.359787c-18.568533 0-33.62816-15.100587-33.62816-33.655467L483.328 446.149973c0-18.55488 15.059627-33.655467 33.62816-33.655467 18.59584 0 33.655467 15.100587 33.655467 33.655467l0 493.554347C550.611627 958.327467 535.552 973.359787 516.95616 973.359787L516.95616 973.359787M516.95616 973.359787" p-id="6014"></path><path d="M66.177707 794.33728c-18.568533 0-33.641813-15.07328-33.641813-33.641813L32.535893 263.236267c0-18.582187 15.07328-33.641813 33.641813-33.641813 18.55488 0 33.62816 15.07328 33.62816 33.641813l0 497.4592C99.805867 779.264 84.732587 794.33728 66.177707 794.33728L66.177707 794.33728M66.177707 794.33728" p-id="6015"></path></svg>