<?xml version="1.0" standalone="no"?><!DOCTYPE svg PUBLIC "-//W3C//DTD SVG 1.1//EN" "http://www.w3.org/Graphics/SVG/1.1/DTD/svg11.dtd"><svg t="1587129772615" class="icon" viewBox="0 0 1433 1024" version="1.1" xmlns="http://www.w3.org/2000/svg" p-id="50156" xmlns:xlink="http://www.w3.org/1999/xlink" width="279.8828125" height="200"><defs><style type="text/css"></style></defs><path d="M10.853676 85.737218a85.668955 85.668955 0 1 0 171.269649 0 85.668955 85.668955 0 0 0-171.337911 0zM0 509.986268a85.737218 85.737218 0 1 0 171.474435 0 85.737218 85.737218 0 0 0-171.474435 0z m0 426.638224a85.737218 85.737218 0 1 0 171.474435 0 85.737218 85.737218 0 0 0-171.474435 0zM1371.181121 81.641491c0 45.189521-33.516699 81.709753-75.020065 81.709752H407.320045c-41.503366 0-75.088327-36.588494-75.088327-81.709752 0-45.052996 33.516699-81.641491 75.088327-81.641491h888.772749c41.571629 0 75.088327 36.588494 75.088327 81.641491z m0 424.522098c0 45.052996-33.516699 81.641491-75.020065 81.641491H407.320045c-41.503366 0-75.088327-36.588494-75.088327-81.641491 0-45.189521 33.516699-81.709753 75.088327-81.709753h888.772749c41.571629-0.068262 75.088327 36.520232 75.088327 81.709753z m0 426.228652c0 45.189521-33.516699 81.778015-75.020065 81.778014H407.320045c-41.503366 0-75.088327-36.588494-75.088327-81.778014 0-44.984734 33.516699-81.573228 75.088327-81.573229h888.772749c41.571629 0 75.088327 36.588494 75.088327 81.573229z" p-id="50157"></path></svg>