<?xml version="1.0" standalone="no"?><!DOCTYPE svg PUBLIC "-//W3C//DTD SVG 1.1//EN" "http://www.w3.org/Graphics/SVG/1.1/DTD/svg11.dtd"><svg t="1587128825901" class="icon" viewBox="0 0 1024 1024" version="1.1" xmlns="http://www.w3.org/2000/svg" p-id="24447" xmlns:xlink="http://www.w3.org/1999/xlink" width="200" height="200"><defs><style type="text/css"></style></defs><path d="M498.752 504.81279999l76.45226667 419.8272a29.76106667 29.76106667 0 0 0 46.9632 19.87733334l103.75466666-73.8304 149.62666667 216.90453333a30.20906667 30.20906667 0 0 0 42.5952 7.536l13.10613333-9.9392 15.2896-10.70293333a30.93013333 30.93013333 0 0 0 7.64586667-43.25013334L804.55893333 814.33173333l102.66346667-73.06666667a31.06133333 31.06133333 0 0 0-2.18453333-52.3136L543.53066667 472.37546666a30.176 30.176 0 0 0-44.77866667 32.43733333z m-3.27573333 284.29013334c-3.2768 0-6.55253333 0.21866667-9.82933334 0.21866666-190.03733333 0-345.12426667-157.7088-345.12426666-351.568S295.61066667 86.07679999 485.64693333 86.07679999c191.12853333 0 346.21546667 157.8176 346.21546667 351.6768a359.6608 359.6608 0 0 1-24.02773333 128.76586667l66.62293333 39.75466667a432.672 432.672 0 0 0 33.856-168.52053334C908.31466667 201.08159999 718.2784 8.53333333 485.648 8.53333333S64.07146667 201.08159999 64.07146667 437.75359999s188.944 429.11146667 421.57546666 429.11146667q11.46666667 0 22.93546667-0.656z m60.06933333-373.4112L728.10666667 519.01119999a271.872 271.872 0 0 0 10.92266666-111.94666666 255.14026667 255.14026667 0 1 0-261.0272 289.8592l-36.04266666-200.08426667a76.4512 76.4512 0 0 1 113.58613333-81.14773333z" p-id="24448"></path></svg>