<?xml version="1.0" standalone="no"?><!DOCTYPE svg PUBLIC "-//W3C//DTD SVG 1.1//EN" "http://www.w3.org/Graphics/SVG/1.1/DTD/svg11.dtd"><svg t="1587129302368" class="icon" viewBox="0 0 1131 1024" version="1.1" xmlns="http://www.w3.org/2000/svg" p-id="40470" xmlns:xlink="http://www.w3.org/1999/xlink" width="220.8984375" height="200"><defs><style type="text/css"></style></defs><path d="M460.00222615 664.74635557h224.43227403a23.51682158 23.51682158 0 0 1 24.02805586 24.02805673v218.2974504a24.02805674 24.02805674 0 0 1-24.02805586 24.02805673H460.00222615a24.02805674 24.02805674 0 0 1-24.02805586-24.02805673v-218.29745039a23.51682158 23.51682158 0 0 1 24.02805586-24.02805674z" p-id="40471"></path><path d="M570.94027527 131.0167584m-69.01675838-1e-8a69.01675839 69.01675839 0 1 0 138.0335168 0 69.01675839 69.01675839 0 1 0-138.0335168 0Z" p-id="40472"></path><path d="M540.26616063 231.2188666h61.3482293a108.38187247 108.38187247 0 0 1 107.8706373 107.87063731H432.39552333a107.87063731 107.87063731 0 0 1 107.8706373-107.8706373zM940.05212314 479.67919648h-335.88155743V339.08950391H541.7998661V481.21290195H205.91830867a15.33705732 15.33705732 0 0 0-15.33705732 15.33705732v102.24704971a15.33705732 15.33705732 0 0 0 15.33705733 15.33705733H238.12612967a15.33705732 15.33705732 0 0 0 15.33705733-15.33705733v-51.12352441h286.80297363v51.12352441a15.33705732 15.33705732 0 0 0 15.33705732 15.33705733h31.69658497a15.33705732 15.33705732 0 0 0 15.33705733-15.33705733v-51.12352441h290.89285575v51.12352441a12.78088154 12.78088154 0 0 0 14.82582218 13.80335186h31.69658496a15.33705732 15.33705732 0 0 0 15.33705731-15.33705732v-102.24704971a15.33705732 15.33705732 0 0 0-15.33705731-15.33705733z" p-id="40473"></path><path d="M84.75555555 664.74635557m24.02805674 0l224.43227314 0q24.02805674 0 24.02805675 24.02805673l0 218.2974504q0 24.02805674-24.02805674 24.02805673l-224.43227315 0q-24.02805674 0-24.02805674-24.02805673l0-218.29745039q0-24.02805674 24.02805674-24.02805674Z" p-id="40474"></path><path d="M772.87819715 664.74635557m24.02805674 0l224.43227314 0q24.02805674 0 24.02805675 24.02805673l0 218.2974504q0 24.02805674-24.02805675 24.02805673l-224.43227314 0q-24.02805674 0-24.02805673-24.02805673l0-218.29745039q0-24.02805674 24.02805673-24.02805674Z" p-id="40475"></path></svg>