<?xml version="1.0" standalone="no"?><!DOCTYPE svg PUBLIC "-//W3C//DTD SVG 1.1//EN" "http://www.w3.org/Graphics/SVG/1.1/DTD/svg11.dtd"><svg t="1586768630830" class="icon" viewBox="0 0 1024 1024" version="1.1" xmlns="http://www.w3.org/2000/svg" p-id="7910" xmlns:xlink="http://www.w3.org/1999/xlink" width="200" height="200"><defs><style type="text/css"></style></defs><path d="M873.691 0c42.496 0 76.508 34.706 77.166 76.617V531.64l-333.678-1.097a87.771 87.771 0 0 0-88.027 86.637L523.776 1024H149.65a76.654 76.654 0 0 1-76.507-76.617V76.617C73.143 34.707 107.154 0 149.65 0h724.041zM760.54 425.765c0-21.943-17.115-40.595-37.485-40.595H257.573c-20.407 0-37.486 17.957-37.486 40.595 0 21.942 17.079 40.594 37.486 40.594h465.444c21.029 0 37.486-17.957 37.486-40.594zM256.914 538.917c-20.407 0-37.485 17.956-37.485 40.594 0 21.943 17.078 40.594 37.485 40.594H440.32c20.407 0 37.486-17.956 37.486-40.594 0-21.943-17.08-40.594-37.486-40.594H256.914z m0.659-238.3h465.444c20.37 0 37.486-17.956 37.486-40.594 0-21.943-17.116-40.594-37.486-40.594H257.573c-20.407 0-37.486 17.956-37.486 40.594s17.079 40.594 37.486 40.594z" p-id="7911"></path><path d="M826.514 786.286h85.687a36.571 36.571 0 0 1 28.745 59.172l-125.915 160.22a36.571 36.571 0 0 1-57.49 0l-125.916-160.22a36.571 36.571 0 0 1 28.745-59.172h93.001V603.429a36.571 36.571 0 0 1 73.143 0v182.857z" p-id="7912"></path></svg>