<?xml version="1.0" standalone="no"?><!DOCTYPE svg PUBLIC "-//W3C//DTD SVG 1.1//EN" "http://www.w3.org/Graphics/SVG/1.1/DTD/svg11.dtd"><svg t="1586769883241" class="icon" viewBox="0 0 1024 1024" version="1.1" xmlns="http://www.w3.org/2000/svg" p-id="31942" xmlns:xlink="http://www.w3.org/1999/xlink" width="200" height="200"><defs><style type="text/css"></style></defs><path d="M497.792 689.856c6.784 6.848 27.264 6.848 34.112 0l218.24-218.24a20.992 20.992 0 0 0 6.848-13.632c0-13.632-6.848-27.264-20.48-27.264H613.76V84.48c0-13.632-13.632-20.48-20.48-20.48H429.632c-13.632 0-20.48 6.848-20.48 20.48v339.392H293.248c-6.848 0-13.632 0-20.48 6.848-6.848 6.848-6.848 27.264 0 34.112l225.024 225.024z" p-id="31943"></path><path d="M1022.912 621.632c0-6.784 0-13.632-6.848-27.264l-129.536-218.24c-6.848-20.416-34.112-27.264-54.528-13.632-20.48 13.632-27.264 34.112-13.632 54.528L920.64 587.52H750.144c-20.48 0-34.112 13.632-40.896 34.112-6.848 47.744-34.112 95.488-68.224 122.752-34.112 27.264-81.856 47.744-129.6 47.744s-95.488-20.48-129.6-47.744c-34.112-34.112-61.376-75.008-68.224-122.752 0-20.48-20.48-34.112-40.896-34.112H102.272l102.272-170.496c13.632-20.48 6.784-40.896-13.632-54.528-20.48-13.632-47.744-6.848-54.528 13.632L6.848 601.216C0 608 0 614.848 0 621.632V983.04c0 20.48 20.48 40.96 40.896 40.96h941.056c20.48 0 40.896-20.48 40.896-40.896V621.632c0.064 6.848 0.064 0 0.064 0z" p-id="31944"></path></svg>