<?xml version="1.0" standalone="no"?><!DOCTYPE svg PUBLIC "-//W3C//DTD SVG 1.1//EN" "http://www.w3.org/Graphics/SVG/1.1/DTD/svg11.dtd"><svg t="1586768648121" class="icon" viewBox="0 0 1024 1024" version="1.1" xmlns="http://www.w3.org/2000/svg" p-id="9241" xmlns:xlink="http://www.w3.org/1999/xlink" width="200" height="200"><defs><style type="text/css"></style></defs><path d="M768.004 64c35.346 0 64 28.654 64 64v448H908c28.719 0 52 23.281 52 52v280c0 28.719-23.281 52-52 52H116c-28.719 0-52-23.281-52-52V628c0-28.719 23.281-52 52-52h76V128c0-35.346 28.654-64 64-64h512.004z m-7.996 72H264v440h131c17.673 0 32 14.327 32 32v7c0 46.475 37.298 84.238 83.594 84.989L512 700c46.475 0 84.238-37.298 84.989-83.594L597 615v-7c0-17.673 14.327-32 32-32h131.008V136zM512 177c17.673 0 32 14.327 32 32v242.781l68.41-68.408c12.496-12.497 32.757-12.497 45.254 0 12.372 12.371 12.496 32.353 0.371 44.877l-0.371 0.377-123.037 123.037c-6.37 6.37-14.76 9.494-23.108 9.373-8.35 0.121-16.739-3.002-23.11-9.373L365.373 428.627c-12.497-12.496-12.497-32.758 0-45.254 12.496-12.497 32.758-12.497 45.254 0L480 452.745V209c0-17.673 14.327-32 32-32z" p-id="9242"></path></svg>