<?xml version="1.0" standalone="no"?><!DOCTYPE svg PUBLIC "-//W3C//DTD SVG 1.1//EN" "http://www.w3.org/Graphics/SVG/1.1/DTD/svg11.dtd"><svg t="1586768686841" class="icon" viewBox="0 0 1024 1024" version="1.1" xmlns="http://www.w3.org/2000/svg" p-id="9978" xmlns:xlink="http://www.w3.org/1999/xlink" width="200" height="200"><defs><style type="text/css"></style></defs><path d="M731.940571 691.712h251.172572a40.228571 40.228571 0 0 1 0 80.457143H730.185143l62.683428 62.683428a40.228571 40.228571 0 1 1-56.905142 56.905143l-129.316572-129.316571a40.082286 40.082286 0 0 1-11.702857-29.622857 40.082286 40.082286 0 0 1 11.702857-29.622857l129.316572-129.316572a40.228571 40.228571 0 0 1 56.905142 56.905143l-60.928 60.928z m-291.328 247.003429a39.570286 39.570286 0 0 1 0 79.213714H39.497143A39.570286 39.570286 0 0 1 0 978.358857V193.097143a39.570286 39.570286 0 0 1 79.213714 0v745.545143h361.325715z m81.846858-130.486858a40.228571 40.228571 0 0 1 0 80.457143H219.428571c-42.422857 0-76.8-34.377143-76.8-76.8v-731.428571C142.628571 38.034286 177.005714 3.657143 219.428571 3.657143h658.285715c42.422857 0 76.8 34.377143 76.8 76.8v355.254857a40.228571 40.228571 0 1 1-80.457143 0V84.114286h-650.971429v724.114285h299.373715zM365.714286 259.657143a40.228571 40.228571 0 1 1 0-80.457143h261.266285a40.228571 40.228571 0 0 1 0 80.457143H365.714286z m0 180.955428a40.228571 40.228571 0 0 1 0-80.457142h180.297143a40.228571 40.228571 0 1 1 0 80.457142H365.714286z" p-id="9979"></path></svg>