<?xml version="1.0" standalone="no"?><!DOCTYPE svg PUBLIC "-//W3C//DTD SVG 1.1//EN" "http://www.w3.org/Graphics/SVG/1.1/DTD/svg11.dtd"><svg t="1587125948484" class="icon" viewBox="0 0 1024 1024" version="1.1" xmlns="http://www.w3.org/2000/svg" p-id="3752" xmlns:xlink="http://www.w3.org/1999/xlink" width="200" height="200"><defs><style type="text/css"></style></defs><path d="M577.536 577.349818v134.469818a25.367273 25.367273 0 0 1-17.035636 24.064 25.506909 25.506909 0 0 1-28.392728-8.145454l-159.930181-199.982546a25.390545 25.390545 0 0 1-0.046546-31.883636l159.930182-199.912727a25.553455 25.553455 0 0 1 40.727273 1.28c3.002182 4.189091 4.724364 9.309091 4.747636 14.661818v134.446545h334.429091c18.082909 0 34.443636 7.330909 46.312727 19.176728 11.869091 11.869091 19.176727 28.229818 19.176727 46.312727 0 18.106182-7.330909 34.466909-19.176727 46.312727-11.869091 11.869091-28.253091 19.2-46.336 19.2h-334.429091z m79.895273 334.592c0 18.106182-7.330909 34.466909-19.176728 46.312727-11.845818 11.869091-28.206545 19.2-46.289454 19.2H192.046545a145.687273 145.687273 0 0 1-102.935272-42.658909A145.291636 145.291636 0 0 1 46.545455 831.930182V192.046545a145.291636 145.291636 0 0 1 42.565818-102.842181A145.687273 145.687273 0 0 1 192.046545 46.545455h399.918546c18.059636 0 34.443636 7.330909 46.289454 19.2 11.869091 11.869091 19.176727 28.229818 19.176728 46.312727 0 18.082909-7.330909 34.443636-19.176728 46.312727-11.845818 11.869091-28.206545 19.176727-46.289454 19.176727h-320c-26.018909 0-49.617455 10.496-66.699636 27.461819a93.323636 93.323636 0 0 0-27.694546 66.420363V751.941818a94.021818 94.021818 0 0 0 27.298909 66.629818 94.254545 94.254545 0 0 0 66.513455 27.834182h320.581818c18.082909 0 34.443636 7.330909 46.289454 19.2 11.869091 11.869091 19.176727 28.253091 19.176728 46.336z" p-id="3753"></path></svg>