<?xml version="1.0" standalone="no"?><!DOCTYPE svg PUBLIC "-//W3C//DTD SVG 1.1//EN" "http://www.w3.org/Graphics/SVG/1.1/DTD/svg11.dtd"><svg t="1586764755507" class="icon" viewBox="0 0 1024 1024" version="1.1" xmlns="http://www.w3.org/2000/svg" p-id="2042" xmlns:xlink="http://www.w3.org/1999/xlink" width="200" height="200"><defs><style type="text/css"></style></defs><path d="M780.059664 174.271092l-54.623062 0c-7.78122 0-14.071484-6.291287-14.071484-14.08581L711.365118 135.539976c0-38.83754-31.605835-70.435189-70.443375-70.435189L366.22645 65.104787c-38.83754 0-70.434166 31.596625-70.434166 70.435189l0 24.645306c0 7.794523-6.313799 14.08581-14.0766 14.08581l-54.587246 0c-38.897915 0-70.434166 31.520901-70.434166 70.434166l0 52.825113c0 7.794523 6.313799 14.100136 14.093996 14.100136L836.402903 311.630507c7.791453 0 14.083763-6.306636 14.083763-14.100136l0-52.825113C850.485643 205.791993 818.957579 174.271092 780.059664 174.271092zM655.021879 160.186306c0 7.794523-6.28924 14.08581-14.100136 14.08581L366.22645 174.272116c-7.779174 0-14.077623-6.291287-14.077623-14.08581L352.148827 135.539976c0-7.780197 6.29845-14.077623 14.077623-14.077623l274.695293 0c7.780197 0 14.100136 6.297426 14.100136 14.077623L655.021879 160.186306z" p-id="2043"></path><path d="M822.286394 354.767979 184.856683 354.767979c-15.559371 0-26.90272 12.550851-25.329898 28.02631l55.697533 548.821627c1.572822 15.468296 15.467273 28.018124 31.026644 28.018124l514.192945 0c15.559371 0 29.446659-12.549827 31.025621-28.018124l56.114019-548.821627C849.179904 367.334179 837.844741 354.767979 822.286394 354.767979zM483.409336 769.527285c-0.016373 9.894348-8.009418 17.896602-17.923208 17.896602l-89.021499-0.038886c-9.912767 0-23.073508-6.16542-29.40368-13.703093l-53.197596-63.603597c-6.359848-7.577582-8.531304-21.182438-4.889357-30.362518l6.822382-17.124006c3.662413-9.198499-0.831948-19.617803-10.011005-23.307845-6.252401-2.511193-13.394055-5.371334-19.676132-7.943926-9.142218-3.710508-8.54256-8.505721 1.168616-10.301623l72.04178-13.468756c9.740852-1.836835 22.343891 3.188622 28.138874 11.190877 11.95631 16.446577 31.312146 43.136449 43.167149 59.661821 5.780657 8.019651 2.850931 11.710716-6.376221 8.019651l-18.602683-7.421017c-9.182127-3.653203-17.58654-4.213975-18.757203-1.255597-1.190105 2.957355 3.006474 11.519358 9.354042 19.11229l4.300956 5.16258c6.348592 7.573489 19.509333 13.719466 29.405727 13.719466l55.573713 0.038886c9.895371 0 17.906835 8.002254 17.886369 17.897625L483.41036 769.527285zM496.457514 533.702278l17.633612-9.509585c8.707312-4.716418 14.523785-10.804067 12.998035-13.586436-1.50733-2.823302-10.744715-5.081739-20.640086-5.081739l-6.706749 0c-9.897418 0-23.058159 6.126534-29.426193 13.704117l-35.668361 42.573631c-6.367011 7.596002-17.673521 8.600889-25.249057 2.203178l-27.472702-22.978341c-7.598049-6.359848-8.592702-17.684778-2.213411-25.241894l57.148581-68.223824c6.379291-7.594979 19.519566-13.721513 29.437449-13.721513l82.901105 0c9.894348 0 21.723767 7.03523 26.439162 15.772218l8.735965 16.137539c4.715395 8.716522 15.576767 11.963473 24.290219 7.28594 5.976108-3.188622 12.739139-6.822382 18.692734-9.973142 8.773827-4.619204 12.018731-1.121544 7.189749 7.497765l-35.890418 63.913659c-4.851495 8.621355-16.796548 15.07637-26.689872 14.400988-20.272719-1.3743-53.188386-3.65218-73.411987-5.180999C488.657874 542.997991 487.749178 538.41665 496.457514 533.702278zM700.87623 707.101513l-44.141336 70.137407c-5.258771 8.369621-17.529235 14.610766-27.426653 13.9712l-18.379603-1.235131c-9.896394-0.6191-18.435884 6.842849-19.132756 16.717753-0.461511 6.745634-1.006933 14.417361-1.50733 21.123087-0.753153 9.895371-5.451152 10.786671-10.206456 2.069125l-34.95921-64.453964c-4.659113-8.698103-3.771907-22.225187 2.068102-30.228465 11.962449-16.429181 31.423687-43.039235 43.523259-59.371202 5.872754-7.963369 10.280134-6.300496 9.565866 3.593851l-1.296529 20.004613c-0.654916 9.857509 1.354857 18.051121 4.54348 18.263969 3.149736 0.211824 10.009981-6.417153 15.287171-14.765285l3.558036-5.683443c5.293563-8.368598 7.072069-22.766516 4.056386-32.216749l-17.008372-52.880371c-3.012613-9.448186 2.089591-19.519566 11.559267-22.590508l34.131355-10.979052c9.428743-3.015683 19.48068 2.127454 22.531156 11.556197l27.311019 84.730777C707.949322 684.295088 706.169793 698.714496 700.87623 707.101513z" p-id="2044"></path></svg>