<?xml version="1.0" standalone="no"?><!DOCTYPE svg PUBLIC "-//W3C//DTD SVG 1.1//EN" "http://www.w3.org/Graphics/SVG/1.1/DTD/svg11.dtd"><svg t="1587127319662" class="icon" viewBox="0 0 1024 1024" version="1.1" xmlns="http://www.w3.org/2000/svg" p-id="16196" xmlns:xlink="http://www.w3.org/1999/xlink" width="200" height="200"><defs><style type="text/css"></style></defs><path d="M153.6 0h716.8a102.4 102.4 0 0 1 102.4 102.4v819.2a102.4 102.4 0 0 1-102.4 102.4H153.6a102.4 102.4 0 0 1-102.4-102.4V102.4a102.4 102.4 0 0 1 102.4-102.4z m153.6 204.8a51.2 51.2 0 1 0 0 102.4h409.6a51.2 51.2 0 0 0 0-102.4H307.2z m0 204.8a51.2 51.2 0 1 0 0 102.4h409.6a51.2 51.2 0 0 0 0-102.4H307.2z m0 204.8a51.2 51.2 0 0 0 0 102.4h51.2a51.2 51.2 0 0 0 0-102.4H307.2z m358.4 281.6l104.5504 54.9888a25.6 25.6 0 0 0 37.1712-26.9824l-19.968-116.4288 84.5824-82.432a25.6 25.6 0 0 0-14.1824-43.7248l-116.9408-16.9984-52.224-105.9328a25.6 25.6 0 0 0-45.9264 0l-52.2752 105.984-116.9408 16.9472a25.6 25.6 0 0 0-14.1824 43.6736l84.5824 82.432-19.968 116.48a25.6 25.6 0 0 0 37.1712 26.9824L665.6 896z" p-id="16197"></path></svg>