<?xml version="1.0" standalone="no"?><!DOCTYPE svg PUBLIC "-//W3C//DTD SVG 1.1//EN" "http://www.w3.org/Graphics/SVG/1.1/DTD/svg11.dtd"><svg t="1587129331858" class="icon" viewBox="0 0 1024 1024" version="1.1" xmlns="http://www.w3.org/2000/svg" p-id="41798" xmlns:xlink="http://www.w3.org/1999/xlink" width="200" height="200"><defs><style type="text/css"></style></defs><path d="M830.679327 1023.670883H193.3939c-66.463108 0-120.203906-52.278463-120.203906-116.840536v-70.557645c0-64.562073 48.183926-140.23789 107.481595-169.045882l109.382629-53.082747 82.768139 277.624228s2.266619 23.982288 43.723806 23.982287c41.38407 0 41.38407-23.982288 41.384069-23.982287V665.398902s1.901035-51.254828 55.788066-51.254829c53.960147 0 53.960147 51.254828 53.960147 51.254829v226.369399s14.111529 28.442408 47.525876 28.442408c33.487463 0 37.582-28.442408 37.581999-28.442408l81.086455-277.624228 109.309513 53.155864c59.517019 28.734875 107.700945 104.410692 107.700944 168.972765v70.557645c0 64.488957-53.887031 116.840536-120.203905 116.840536zM511.963496 528.963082c-135.704653 0-245.818449-158.078372-245.818449-289.980955 0-131.902583 110.113797-238.87236 245.818449-238.87236 135.777769 0 245.745333 106.969777 245.745333 238.87236 0 131.902583-109.967563 289.980955-245.745333 289.980955z" p-id="41799"></path></svg>