<?xml version="1.0" standalone="no"?><!DOCTYPE svg PUBLIC "-//W3C//DTD SVG 1.1//EN" "http://www.w3.org/Graphics/SVG/1.1/DTD/svg11.dtd"><svg t="1586766342046" class="icon" viewBox="0 0 1024 1024" version="1.1" xmlns="http://www.w3.org/2000/svg" p-id="22175" xmlns:xlink="http://www.w3.org/1999/xlink" width="200" height="200"><defs><style type="text/css"></style></defs><path d="M850.408 408.888c-51.272-30.76-235.832-140.128-311.016-187.976-20.504-13.672-41.016-17.088-58.104-3.416-10.256 6.832-362.28 222.152-362.28 222.152s-22.76 13.672-22.76 75.192l12.504 439.88c0 27.336 15.92 51.264 46.68 51.264h702.976c27.336 0 43.264-23.928 46.68-51.264l9.096-436.464v-35.344c-0.008 0 7.992-29.592-63.776-74.024z m-119.624 473.296H279.64c-13.672 0-23.928-12.864-23.928-30.008 0-17.152 10.256-29.992 23.928-29.992h447.728c13.664 0 23.92 12.84 23.92 29.992 0 17.144-10.256 30.008-20.504 30.008z m0-139.04H279.64c-13.672 0-23.928-12.848-23.928-30s10.256-30 23.928-30h447.728c13.664 0 23.92 12.848 23.92 30s-10.256 30-20.504 30z m0-142.456H279.64c-13.672 0-23.928-12.848-23.928-30s10.256-30 23.928-30h447.728c13.664 0 23.92 12.848 23.92 30s-10.256 30-20.504 30z" p-id="22176"></path><path d="M1004.2 341.696L539.392 23.84c-17.096-10.256-41.016-13.672-58.104 0L23.304 328.024c-23.928 17.088-30.76 47.848-13.672 71.776 17.088 23.928 47.848 30.76 71.776 13.672l430.64-283.672 434.056 297.344c10.248 6.832 20.504 10.256 27.344 10.256 17.088 0 30.76-6.832 41.008-20.504 17.088-27.352 10.256-58.112-10.256-75.2z" p-id="22177"></path></svg>