<?xml version="1.0" standalone="no"?><!DOCTYPE svg PUBLIC "-//W3C//DTD SVG 1.1//EN" "http://www.w3.org/Graphics/SVG/1.1/DTD/svg11.dtd"><svg t="1587128396081" class="icon" viewBox="0 0 1024 1024" version="1.1" xmlns="http://www.w3.org/2000/svg" p-id="7632" xmlns:xlink="http://www.w3.org/1999/xlink" width="200" height="200"><defs><style type="text/css"></style></defs><path d="M455.168 398.848c0 78.336-63.488 142.336-142.336 142.336S171.008 477.184 171.008 398.848s63.488-141.824 142.336-141.824 141.824 63.488 141.824 141.824z m-141.824-81.92c-45.056 0-81.92 36.864-81.92 81.92s36.864 81.92 81.92 81.92 81.92-36.864 81.92-81.92-36.864-81.92-81.92-81.92zM1026.048 265.216c0 78.336-63.488 142.336-142.336 142.336s-142.336-63.488-142.336-142.336S805.376 122.88 884.224 122.88s141.824 63.488 141.824 142.336z m-141.824-81.92c-45.056 0-81.92 36.864-81.92 81.92s36.864 81.92 81.92 81.92 81.92-36.864 81.92-81.92-36.864-81.92-81.92-81.92zM796.672 654.336c0 78.336-63.488 142.336-142.336 142.336s-142.336-63.488-142.336-142.336 63.488-142.336 142.336-142.336 142.336 63.488 142.336 142.336z m-142.336-81.92c-45.056 0-81.92 36.864-81.92 81.92s36.864 81.92 81.92 81.92 81.92-36.864 81.92-81.92-36.864-81.92-81.92-81.92zM284.672 755.712c0 78.336-63.488 142.336-142.336 142.336S0 834.56 0 755.712s63.488-141.824 142.336-141.824 142.336 63.488 142.336 141.824z m-142.336-81.92c-45.056 0-81.92 36.864-81.92 81.92s36.864 81.92 81.92 81.92 81.92-36.864 81.92-81.92-36.864-81.92-81.92-81.92z" fill="#434343" p-id="7633"></path><path d="M572.928 567.296l-33.28 40.96-140.8-111.104 33.792-40.96zM249.344 487.424l48.64 25.6-94.72 150.528-48.64-25.6zM799.744 372.736l48.64 26.112-94.72 153.6-48.64-26.112z" fill="#434343" p-id="7634"></path></svg>