<?xml version="1.0" standalone="no"?><!DOCTYPE svg PUBLIC "-//W3C//DTD SVG 1.1//EN" "http://www.w3.org/Graphics/SVG/1.1/DTD/svg11.dtd"><svg t="1587128680868" class="icon" viewBox="0 0 1024 1024" version="1.1" xmlns="http://www.w3.org/2000/svg" p-id="16940" xmlns:xlink="http://www.w3.org/1999/xlink" width="200" height="200"><defs><style type="text/css"></style></defs><path d="M903.529412 421.647059H271.058824a15.058824 15.058824 0 0 1 0-30.117647h632.470588a15.058824 15.058824 0 0 1 0 30.117647zM722.823529 602.352941h-271.058823a15.058824 15.058824 0 0 1 0-30.117647h271.058823a15.058824 15.058824 0 0 1 0 30.117647zM722.823529 783.058824h-271.058823a15.058824 15.058824 0 0 1 0-30.117648h271.058823a15.058824 15.058824 0 0 1 0 30.117648z" p-id="16941"></path><path d="M895.668706 1024h-602.352941c-33.219765 0-60.235294-27.015529-60.235294-60.235294V210.823529c0-33.219765 27.015529-60.235294 60.235294-60.235294h602.352941c33.219765 0 60.235294 27.015529 60.235294 60.235294v752.941177c0 33.219765-27.015529 60.235294-60.235294 60.235294z m-602.352941-813.176471v752.941177h602.413176l-0.060235-752.941177h-602.352941z" p-id="16942"></path><path d="M98.213647 890.368a30.117647 30.117647 0 0 1-30.117647-30.117647V60.235294c0-33.219765 27.015529-60.235294 60.235294-60.235294h685.176471a30.117647 30.117647 0 1 1 0 60.235294H128.331294v800.015059a30.117647 30.117647 0 0 1-30.117647 30.117647z" p-id="16943"></path></svg>