<?xml version="1.0" standalone="no"?><!DOCTYPE svg PUBLIC "-//W3C//DTD SVG 1.1//EN" "http://www.w3.org/Graphics/SVG/1.1/DTD/svg11.dtd"><svg t="1587127167735" class="icon" viewBox="0 0 1024 1024" version="1.1" xmlns="http://www.w3.org/2000/svg" p-id="15269" xmlns:xlink="http://www.w3.org/1999/xlink" width="200" height="200"><defs><style type="text/css"></style></defs><path d="M92.16 959.997l839.678 0c15.55 0 28.16-12.61 28.16-28.16 0-15.55-12.61-28.16-28.16-28.16L120.32 903.677 120.32 92.16c0-15.552-12.607-28.16-28.16-28.16C76.61 64 64 76.607 64 92.16l0 839.678C64 947.388 76.607 959.997 92.16 959.997zM227.964 740.833c32.945 0 59.645-30.34 59.645-67.755 0-9.03-1.565-17.64-4.385-25.51l117.757-153.755c5.637 2.005 11.635 3.09 17.855 3.09 17.382 0 33.02-8.447 43.92-21.92l111.182 63.335c0.36 37.065 26.92 67 59.63 67 32.94 0 59.65-30.34 59.65-67.76 0-1.25-0.04-2.495-0.1-3.73l154.885-151.145c7.385 3.725 15.555 5.807 24.155 5.807 32.945 0 59.645-30.332 59.645-67.757 0-37.42-26.7-67.757-59.645-67.757-32.935 0-59.65 30.337-59.65 67.757 0 7.71 1.15 15.112 3.24 22.017l-145.01 141.837c-10.195-9.245-23.11-14.787-37.17-14.787-16.22 0-30.915 7.365-41.67 19.297l-113.57-64.602c-2.107-35.247-27.925-63.107-59.492-63.107-32.935 0-59.647 30.34-59.647 67.757 0 10.267 2.023 19.997 5.622 28.717l-115.89 151.765c-6.52-2.78-13.582-4.31-20.957-4.31-32.935 0-59.65 30.34-59.65 67.76C168.315 710.493 195.029 740.833 227.964 740.833z" p-id="15270"></path></svg>