<?xml version="1.0" standalone="no"?><!DOCTYPE svg PUBLIC "-//W3C//DTD SVG 1.1//EN" "http://www.w3.org/Graphics/SVG/1.1/DTD/svg11.dtd"><svg t="1587127685015" class="icon" viewBox="0 0 1024 1024" version="1.1" xmlns="http://www.w3.org/2000/svg" p-id="6389" xmlns:xlink="http://www.w3.org/1999/xlink" width="200" height="200"><defs><style type="text/css"></style></defs><path d="M928.5 671H865V480.2c0-17.7-14.3-32-32-32H544.1V384H673c17.7 0 32-14.3 32-32V96c0-17.7-14.3-32-32-32H353c-17.7 0-32 14.3-32 32v256c0 17.7 14.3 32 32 32h127.1v64.2H193c-17.7 0-32 14.3-32 32V671H95.3c-17.7 0-32 14.3-32 32v192.7c0 17.7 14.3 32 32 32H288c17.7 0 32-14.3 32-32V703c0-17.7-14.3-32-32-32h-63V512.2h255.1V671h-63.5c-17.7 0-32 14.3-32 32v192.7c0 17.7 14.3 32 32 32h192.7c17.7 0 32-14.3 32-32V703c0-17.7-14.3-32-32-32H544V512.2h257V671h-65.2c-17.7 0-32 14.3-32 32v192.7c0 17.7 14.3 32 32 32h192.7c17.7 0 32-14.3 32-32V703c0-17.7-14.3-32-32-32z" p-id="6390"></path></svg>