<?xml version="1.0" standalone="no"?><!DOCTYPE svg PUBLIC "-//W3C//DTD SVG 1.1//EN" "http://www.w3.org/Graphics/SVG/1.1/DTD/svg11.dtd"><svg t="1586765829027" class="icon" viewBox="0 0 1024 1024" version="1.1" xmlns="http://www.w3.org/2000/svg" p-id="13982" xmlns:xlink="http://www.w3.org/1999/xlink" width="200" height="200"><defs><style type="text/css"></style></defs><path d="M124.928 805.888c-6.144 0-13.312-3.072-17.408-9.216-53.248-79.872-81.92-173.056-81.92-269.312 0-211.968 135.168-397.312 336.896-461.824 11.264-3.072 22.528 2.048 25.6 13.312 3.072 11.264-2.048 22.528-13.312 25.6-183.296 59.392-307.2 229.376-307.2 422.912 0 88.064 25.6 173.056 74.752 245.76 6.144 9.216 4.096 22.528-6.144 28.672-3.072 3.072-7.168 4.096-11.264 4.096zM510.976 1011.712c-61.44 0-120.832-11.264-177.152-33.792-10.24-4.096-15.36-16.384-11.264-26.624 4.096-10.24 16.384-15.36 26.624-11.264 52.224 20.48 106.496 30.72 162.816 30.72s111.616-10.24 163.84-30.72c10.24-4.096 22.528 1.024 26.624 11.264 4.096 10.24-1.024 22.528-11.264 26.624-58.368 22.528-118.784 33.792-180.224 33.792zM879.616 829.44c-4.096 0-9.216-1.024-12.288-4.096-9.216-7.168-10.24-19.456-4.096-28.672 59.392-77.824 91.136-171.008 91.136-269.312 0-188.416-119.808-356.352-296.96-418.816-10.24-4.096-16.384-15.36-12.288-25.6 4.096-10.24 15.36-16.384 25.6-12.288 194.56 67.584 324.608 251.904 324.608 457.728 0 107.52-34.816 208.896-99.328 293.888-4.096 4.096-10.24 7.168-16.384 7.168z" p-id="13983"></path><path d="M513.024 70.656m-60.416 0a60.416 60.416 0 1 0 120.832 0 60.416 60.416 0 1 0-120.832 0Z" p-id="13984"></path><path d="M220.16 887.808m-60.416 0a60.416 60.416 0 1 0 120.832 0 60.416 60.416 0 1 0-120.832 0Z" p-id="13985"></path><path d="M775.168 887.808m-60.416 0a60.416 60.416 0 1 0 120.832 0 60.416 60.416 0 1 0-120.832 0Z" p-id="13986"></path><path d="M513.024 543.744c-72.704 0-132.096-59.392-132.096-132.096S440.32 279.552 513.024 279.552c72.704 0 132.096 59.392 132.096 132.096s-59.392 132.096-132.096 132.096z m0-225.28c-51.2 0-93.184 41.984-93.184 93.184s41.984 93.184 93.184 93.184 93.184-41.984 93.184-93.184-41.984-93.184-93.184-93.184z" p-id="13987"></path><path d="M505.856 785.408c-49.152 0-103.424-6.144-158.72-23.552-28.672-9.216-46.08-36.864-40.96-66.56C322.56 595.968 409.6 522.24 512 522.24c101.376 0 188.416 72.704 206.848 172.032 5.12 29.696-12.288 58.368-41.984 66.56-38.912 11.264-99.328 24.576-171.008 24.576zM358.4 722.944c131.072 39.936 258.048 13.312 307.2-1.024 9.216-2.048 14.336-11.264 12.288-20.48C663.552 621.568 593.92 563.2 512 563.2s-151.552 58.368-165.888 139.264c-2.048 9.216 3.072 17.408 12.288 20.48z" p-id="13988"></path></svg>