<?xml version="1.0" standalone="no"?><!DOCTYPE svg PUBLIC "-//W3C//DTD SVG 1.1//EN" "http://www.w3.org/Graphics/SVG/1.1/DTD/svg11.dtd"><svg t="1586765987804" class="icon" viewBox="0 0 1024 1024" version="1.1" xmlns="http://www.w3.org/2000/svg" p-id="17265" xmlns:xlink="http://www.w3.org/1999/xlink" width="200" height="200"><defs><style type="text/css"></style></defs><path d="M753.8688 571.392h159.744c23.210667 0 42.120533 20.8896 42.120533 46.762667v331.9808c0 25.8048-18.909867 46.762667-42.120533 46.762666H110.3872c-23.210667 0-42.120533-20.957867-42.120533-46.762666V618.154667c0-25.873067 18.909867-46.762667 42.120533-46.762667H325.632c0 112.708267 82.466133 204.117333 184.183467 204.117333s184.1152-91.409067 184.1152-204.117333h59.938133z m-7.441067 66.423467h149.435734v292.6592H128.136533V637.815467h144.9984c26.692267 117.282133 122.538667 204.117333 236.680534 204.117333 114.0736 0 209.92-86.8352 236.612266-204.117333zM857.156267 571.392V46.967467c0-25.941333-18.705067-46.967467-41.7792-46.967467H208.622933c-23.074133 0-41.7792 21.026133-41.7792 46.967467V571.392h59.392V66.7648h571.528534V571.392h59.392z" p-id="17266"></path><path d="M481.621333 443.1872l202.478934-226.986667a26.965333 26.965333 0 0 1 41.233066 0 35.498667 35.498667 0 0 1 0 46.216534l-219.136 245.623466a28.330667 28.330667 0 0 1-17.476266 13.585067 27.0336 27.0336 0 0 1-28.330667-8.465067 32.5632 32.5632 0 0 1-4.5056-6.485333l-107.861333-120.900267a35.498667 35.498667 0 0 1 0-46.216533 26.965333 26.965333 0 0 1 41.1648 0l92.433066 103.6288z" p-id="17267"></path></svg>