<?xml version="1.0" standalone="no"?><!DOCTYPE svg PUBLIC "-//W3C//DTD SVG 1.1//EN" "http://www.w3.org/Graphics/SVG/1.1/DTD/svg11.dtd"><svg t="1587127533042" class="icon" viewBox="0 0 1093 1024" version="1.1" xmlns="http://www.w3.org/2000/svg" p-id="4061" xmlns:xlink="http://www.w3.org/1999/xlink" width="213.4765625" height="200"><defs><style type="text/css"></style></defs><path d="M73.216 55.296h957.952v315.904H73.216zM1007.616 442.368H463.36v64H1039.36V442.368zM73.216 434.176h319.488v505.344H73.216zM664.064 861.184H463.36v64H712.192c-19.456-18.432-35.84-39.936-48.128-64zM495.616 721.408h-32.256v64h176.128c-1.536-11.776-2.56-23.552-2.56-35.84 0-9.216 0.512-18.944 1.536-28.16H495.616zM704 581.632h-240.64v64h196.608c11.264-23.552 26.112-45.056 44.032-64zM1036.8 676.864l-38.4-64.512c-2.048-4.096-7.68-5.632-11.776-4.096l-47.616 18.944c-9.728-7.68-20.992-13.824-32.256-18.432l-7.168-49.664c-0.512-4.608-4.608-8.192-9.216-7.68H814.08c-4.608 0-8.704 3.584-9.216 7.68l-7.168 49.664c-11.264 4.608-22.528 10.752-32.256 18.432l-47.616-18.432c-4.608-1.536-9.216 0-11.776 4.096l-38.4 64.512c-2.56 4.096-1.536 9.216 2.048 11.776l40.448 30.72c-1.024 6.144-1.024 12.288-1.536 18.432 0 6.144 0.512 12.288 1.536 18.432l-40.448 30.72c-3.584 3.072-4.608 8.192-2.048 11.776l38.4 64.512c2.048 4.096 7.68 5.632 11.776 4.096l47.616-18.944c9.728 7.68 20.48 13.824 32.256 18.432l7.168 49.664c0.512 4.608 4.608 8.192 9.216 7.68h76.288c4.608 0 8.704-3.584 9.216-7.68l7.168-49.664c11.264-4.608 22.528-10.752 32.256-18.432l47.616 18.944c4.608 1.536 9.216 0 11.776-4.096l38.4-64.512c2.56-4.096 1.536-9.216-2.56-11.776l-40.448-30.72c1.024-6.144 1.536-11.776 1.536-18.432 0-6.144-0.512-12.288-1.536-18.432l40.448-30.72c3.584-3.072 4.608-8.192 2.56-12.288z m-184.832 126.464c-36.864 0-67.072-29.184-67.072-65.536s30.208-65.536 67.072-65.536c36.864 0 67.072 29.184 67.072 65.536s-30.208 65.536-67.072 65.536z" p-id="4062"></path></svg>