<?xml version="1.0" standalone="no"?><!DOCTYPE svg PUBLIC "-//W3C//DTD SVG 1.1//EN" "http://www.w3.org/Graphics/SVG/1.1/DTD/svg11.dtd"><svg t="1587126389934" class="icon" viewBox="0 0 1024 1024" version="1.1" xmlns="http://www.w3.org/2000/svg" p-id="6374" xmlns:xlink="http://www.w3.org/1999/xlink" width="200" height="200"><defs><style type="text/css"></style></defs><path d="M789.333333 456.533333V234.666667c0-46.933333-38.4-85.333333-85.333333-85.333334h-426.666667c-46.933333 0-85.333333 38.4-85.333333 85.333334v554.666666c0 46.933333 38.4 85.333333 85.333333 85.333334h264.533334c38.4 29.866667 89.6 46.933333 145.066666 46.933333 132.266667 0 243.2-110.933333 243.2-243.2 0-98.133333-59.733333-179.2-140.8-221.866667zM324.266667 354.133333c0-17.066667 12.8-29.866667 29.866666-29.866666h277.333334c17.066667 0 29.866667 12.8 29.866666 29.866666 0 17.066667-12.8 29.866667-29.866666 29.866667H349.866667c-12.8 0-25.6-12.8-25.6-29.866667z m0 157.866667c0-17.066667 12.8-29.866667 29.866666-29.866667h192c-21.333333 17.066667-42.666667 34.133333-55.466666 59.733334H349.866667c-12.8 0-25.6-12.8-25.6-29.866667z m0 157.866667c0-17.066667 12.8-29.866667 29.866666-29.866667h93.866667c-4.266667 12.8-4.266667 25.6-4.266667 38.4v17.066667H349.866667c-12.8 0-25.6-12.8-25.6-25.6z m362.666666 192c-102.4 0-183.466667-81.066667-183.466666-183.466667s81.066667-183.466667 183.466666-183.466667 183.466667 81.066667 183.466667 183.466667-81.066667 183.466667-183.466667 183.466667z" p-id="6375"></path><path d="M763.733333 648.533333h-46.933333v-72.533333c0-17.066667-12.8-29.866667-29.866667-29.866667-17.066667 0-29.866667 12.8-29.866666 29.866667v98.133333c0 8.533333 4.266667 17.066667 8.533333 21.333334 4.266667 8.533333 12.8 8.533333 21.333333 8.533333h72.533334c17.066667 0 29.866667-12.8 29.866666-29.866667 4.266667-12.8-8.533333-25.6-25.6-25.6z" p-id="6376"></path></svg>