<?xml version="1.0" standalone="no"?><!DOCTYPE svg PUBLIC "-//W3C//DTD SVG 1.1//EN" "http://www.w3.org/Graphics/SVG/1.1/DTD/svg11.dtd"><svg t="1586768481110" class="icon" viewBox="0 0 1024 1024" version="1.1" xmlns="http://www.w3.org/2000/svg" p-id="3210" xmlns:xlink="http://www.w3.org/1999/xlink" width="200" height="200"><defs><style type="text/css"></style></defs><path d="M27.093292 606.656737c15.791777-19.756428 18.051357-43.921839 24.514011-66.568218 21.607803-75.736588 41.736313-151.841645 63.757741-227.473473 10.438142-35.848038 35.91848-56.079502 77.2791-56.263736 84.677375-0.3775 169.354749-0.633983 254.035736-0.915753 2.685848-0.009031 5.375309 0.247452 8.467557 0.400981 0 12.791646 0 24.989046 0 38.078719-4.022451 0.198684-8.041289 0.56354-12.060127 0.570765-81.648345 0.151722-163.296689 0.256483-244.943228 0.388337-28.657478 0.046962-39.45867 8.646373-45.336109 34.702895-21.130961 93.706666-42.489507 187.368176-63.743291 281.051361-0.335957 1.475681-0.435299 2.994712-0.780287 5.449364 282.431313 0 564.483319 0 847.797873 0-2.539545-11.545355-4.840668-22.391703-7.32422-33.205539-19.76546-86.142219-39.590524-172.275406-59.34334-258.421237-5.257905-22.922731-15.768296-31.186185-41.284758-31.162704-82.748332 0.072249-165.496664 0.332344-248.246803 0.518385-3.493228 0.007225-6.979232 0-10.898728 0 0-13.208883 0-25.390027 0-38.443575 3.056123-0.137273 5.967749-0.379306 8.873956-0.382919 82.202854-0.108373 164.402095-0.272739 246.601337-0.173397 9.574769 0.010837 19.339192 0.661076 28.691796 2.458265 30.758111 5.915369 46.484864 26.53517 54.098079 52.447195 26.034847 88.638414 50.966095 177.554986 76.778777 266.251199 2.794222 9.592832 8.597605 18.43247 13.006586 27.622514 0 137.182368 0 274.364736 0 411.639222-323.311478 0-646.626568 0-969.939851 0C27.093292 878.971414 27.093292 742.813173 27.093292 606.656737zM753.923229 786.745849c-161.629549 0-322.668463 0-483.721828 0 0 37.565752 0 74.506553 0 111.481671 161.535625 0 322.421011 0 483.721828 0C753.923229 861.010368 753.923229 824.244771 753.923229 786.745849z" p-id="3211"></path><path d="M515.372212 9.031097c26.609225 25.595936 53.256381 51.161166 79.813226 76.802258 27.143866 26.211857 54.224514 52.474288 81.270845 78.769231 7.88776 7.67282 7.779387 9.459171-0.252871 16.994719-4.847893 4.549867-9.748166 9.052772-14.617734 13.584577-9.229781 8.592186-11.088381 8.577736-19.922601 0.036124-32.468601-31.399319-64.957071-62.780576-97.423865-94.183508-1.909174-1.84415-3.6883-3.800286-7.551804-5.387953 0 2.808671 0 5.619149 0 8.429626 0 86.790651 0.001806 173.584915-0.001806 260.377373-0.001806 12.648955-0.919366 13.496072-14.56716 13.508715-7.999746 0.005419-16.001298-0.097536-23.999238 0.01445-6.627019 0.093923-9.668693-2.783384-9.332736-8.899243 0.111986-2.042834 0.012644-4.096506 0.012644-6.142952 0-86.535974 0-173.071949 0-259.607923 0-2.796028 0-5.593862 0-10.273776-3.157272 2.781578-5.256099 4.492068-7.186947 6.356086-32.878613 31.744307-65.742776 63.501258-98.588877 95.274464-9.619925 9.305643-11.007101 9.33093-21.084-0.046962-4.871374-4.531805-9.782485-9.022066-14.628571-13.577352-7.233909-6.802222-7.371182-8.969686-0.222165-15.903762 34.137548-33.10439 68.334701-66.158206 102.542691-99.201185 19.673342-19.003235 39.409902-37.948671 59.117563-56.917588C510.959618 9.031097 513.166818 9.031097 515.372212 9.031097z" p-id="3212"></path><path d="M527.829707 562.518152c-92.942635-0.001806-185.887076 0.01445-278.827905-0.018062-14.354026-0.005419-22.041296-5.38434-23.820422-16.340867-1.865825-11.487556 6.657725-21.483174 19.104383-22.359191 1.645466-0.113792 3.3108-0.037931 4.963491-0.037931 185.887076 0 371.772346-0.001806 557.661228 0.007225 12.621862 0 19.931632 4.327702 23.09071 13.566514 4.190429 12.258811-4.566123 24.300877-18.383702 25.048652-5.223587 0.285383-10.477879 0.128242-15.714109 0.128242C706.546092 562.519958 617.18519 562.518152 527.829707 562.518152z" p-id="3213"></path><path d="M527.755652 460.522745c-92.939022-0.001806-185.878045 0.016256-278.815261-0.016256-16.819516-0.005419-26.773591-10.450786-23.390542-24.290039 1.854987-7.587928 8.090057-13.095091 16.367961-14.21856 2.711135-0.368469 5.490907-0.428074 8.241779-0.428074 185.323536-0.019868 370.648877-0.036124 555.972413 0.083086 4.817187 0.001806 10.150953 0.558122 14.33777 2.521482 7.76855 3.643145 11.238297 10.450786 10.600702 18.4993-0.670107 8.433239-6.742617 14.917567-15.531681 16.909827-3.422786 0.774868-7.08038 0.901304-10.625989 0.90311C712.522872 460.531776 620.138359 460.522745 527.755652 460.522745z" p-id="3214"></path></svg>