<?xml version="1.0" standalone="no"?><!DOCTYPE svg PUBLIC "-//W3C//DTD SVG 1.1//EN" "http://www.w3.org/Graphics/SVG/1.1/DTD/svg11.dtd"><svg t="1586768764868" class="icon" viewBox="0 0 1024 1024" version="1.1" xmlns="http://www.w3.org/2000/svg" p-id="12792" xmlns:xlink="http://www.w3.org/1999/xlink" width="200" height="200"><defs><style type="text/css"></style></defs><path d="M839.68 824.32c-20.48 20.48-51.2 5.12-51.2-20.48v-122.88c-128 5.12-97.28 112.64-46.08 209.92 5.12 5.12 5.12 15.36 5.12 20.48 0 30.72-20.48 51.2-51.2 51.2-15.36 0-25.6-5.12-35.84-15.36-215.04-250.88-97.28-491.52 128-506.88V317.44c0-25.6 30.72-40.96 51.2-20.48l35.84 35.84V51.2c0-25.6-20.48-51.2-51.2-51.2H51.2C20.48 0 0 20.48 0 51.2v921.6c0 25.6 20.48 51.2 51.2 51.2h773.12c25.6 0 51.2-20.48 51.2-51.2v-184.32l-35.84 35.84zM189.44 184.32h512c15.36 0 30.72 10.24 30.72 25.6s-10.24 25.6-30.72 25.6h-512c-15.36 0-30.72-10.24-30.72-25.6s15.36-25.6 30.72-25.6z m0 189.44h512c15.36 0 30.72 10.24 30.72 25.6s-10.24 25.6-30.72 25.6h-512c-15.36 0-30.72-10.24-30.72-25.6s15.36-25.6 30.72-25.6zM409.6 808.96H189.44c-15.36 0-30.72-10.24-30.72-30.72 0-15.36 15.36-25.6 30.72-25.6H409.6c15.36 0 30.72 10.24 30.72 25.6-5.12 15.36-15.36 30.72-30.72 30.72z m0-189.44H189.44c-15.36 0-30.72-10.24-30.72-25.6s15.36-30.72 30.72-30.72H409.6c15.36 0 30.72 10.24 30.72 30.72-5.12 10.24-15.36 25.6-30.72 25.6z" p-id="12793"></path><path d="M834.56 624.64c-225.28-5.12-215.04 153.6-158.72 256-143.36-153.6-112.64-394.24 158.72-389.12V404.48c0-15.36 15.36-20.48 25.6-10.24l153.6 153.6c5.12 5.12 5.12 15.36 0 20.48l-153.6 153.6c-10.24 10.24-25.6 5.12-25.6-10.24v-87.04z" p-id="12794"></path></svg>