<?xml version="1.0" standalone="no"?><!DOCTYPE svg PUBLIC "-//W3C//DTD SVG 1.1//EN" "http://www.w3.org/Graphics/SVG/1.1/DTD/svg11.dtd"><svg t="1586766868104" class="icon" viewBox="0 0 1024 1024" version="1.1" xmlns="http://www.w3.org/2000/svg" p-id="32594" xmlns:xlink="http://www.w3.org/1999/xlink" width="200" height="200"><defs><style type="text/css"></style></defs><path d="M988.966567 988.112225c-312.555441 0-625.112688 0-937.669935 0-21.604191-6.498778-37.338169-19.232625-44.095236-41.505117 0-159.953377 0-319.904948 0-479.858325 2.600956-4.632953 5.263324-9.2352 7.781193-13.915115 1.39982-2.600956 3.108504-5.210943 3.75513-8.026839C45.654003 327.079251 71.920047 209.196338 99.668996 91.665638c7.120117-30.163865 25.785589-52.790376 58.026606-59.957455 10.010068-2.225262 20.55839-2.777966 30.864678-2.815896 117.933487-0.440718 235.866975-0.612308 353.802268-0.930203 10.963752-0.0289 21.925698-0.565347 32.88945-0.866985 92.510948 0 185.025509 0 277.54007 0 1.006064 0.346794 1.990454 0.897691 3.023611 1.013289 32.885838 3.708169 56.464227 20.923246 66.557381 61.37895 21.649346 86.787039 40.759148 174.200836 61.709488 261.168497 9.108765 37.815011 13.906084 76.963011 32.120001 112.202353 0 162.980601 0 325.959395 0 488.939996-0.661076 2.198169-1.423301 4.371051-1.966973 6.596313C1010.776667 972.533583 1003.759505 983.618351 988.966567 988.112225zM971.56003 471.894703c-0.384725-2.257774-0.576184-3.971877-0.980777-5.635405-29.314942-121.215388-58.622659-242.432583-88.011656-363.629908-5.489101-22.628317-16.293906-31.068781-39.474926-31.4517-2.158432-0.037931-4.324089-0.034318-6.484328-0.0289-190.828892 0.494904-381.661397 0.98439-572.492096 1.49555-28.310684 0.075861-56.632205-0.24384-84.926633 0.559928-23.495303 0.666495-34.509629 10.373118-39.955381 33.039366-24.096774 100.281305-48.162842 200.568028-72.221685 300.856557-5.129663 21.38022-10.19069 42.778502-15.432339 64.796317C358.525532 471.894703 664.894671 471.894703 971.56003 471.894703zM259.922206 636.369047c0 53.931907 0 107.370716 0 161.085877 168.052465 0 335.64615 0 503.552312 0 0-53.834371 0-107.280405 0-161.085877C595.582806 636.369047 428.155293 636.369047 259.922206 636.369047z" p-id="32595"></path><path d="M511.04451 217.700019c-103.958767 0-207.915729 0.012644-311.87269-0.01445-15.331191-0.003612-24.837324-9.874602-23.643413-24.308102 0.904916-10.942078 9.444722-19.191082 20.415699-19.705854 1.293253-0.059605 2.593731-0.025287 3.890597-0.025287 207.915729-0.001806 415.829651-0.001806 623.747186 0.001806 15.947112 0 25.46047 9.536839 24.27559 24.266558-0.85976 10.689207-9.023872 18.873187-19.756428 19.693211-2.366147 0.180622-4.752163 0.088505-7.127342 0.088505C717.663373 217.700019 614.353038 217.700019 511.04451 217.700019z" p-id="32596"></path><path d="M511.600825 285.137029c97.447346 0.001806 194.89108-0.023481 292.338426 0.023481 17.258427 0.007225 28.034332 15.932662 21.159861 31.206054-3.578121 7.952784-9.885439 12.327448-18.697984 12.849445-0.861567 0.050574-1.728552 0.018062-2.593731 0.018062-194.67614 0-389.354086 0.007225-584.030226-0.010837-17.160891-0.001806-27.817586-14.885055-21.844418-30.339068 3.428205-8.873956 10.813836-13.720043 21.327839-13.73088 42.133681-0.037931 84.265557-0.016256 126.399238-0.016256C400.975302 285.137029 456.288967 285.137029 511.600825 285.137029z" p-id="32597"></path></svg>