<?xml version="1.0" standalone="no"?><!DOCTYPE svg PUBLIC "-//W3C//DTD SVG 1.1//EN" "http://www.w3.org/Graphics/SVG/1.1/DTD/svg11.dtd"><svg t="1587129499767" class="icon" viewBox="0 0 1024 1024" version="1.1" xmlns="http://www.w3.org/2000/svg" p-id="48823" xmlns:xlink="http://www.w3.org/1999/xlink" width="200" height="200"><defs><style type="text/css"></style></defs><path d="M511.670857 1024A388.022857 388.022857 0 0 1 128.329143 632.246857a551.862857 551.862857 0 0 1 93.622857-257.462857c23.625143-38.912 49.810286-81.554286 80.457143-124.342857 36.571429-51.785143 75.264-103.058286 115.126857-152.502857q23.478857-29.257143 48.64-58.514286L493.970286 7.972571a24.210286 24.210286 0 0 1 34.230857-1.097142l1.097143 1.097142 39.131428 44.397715c11.556571 13.458286 24.210286 29.257143 37.961143 45.933714a3754.788571 3754.788571 0 0 1 115.126857 152.283429 1481.947429 1481.947429 0 0 1 80.457143 124.342857 549.741714 549.741714 0 0 1 93.622857 257.462857A388.022857 388.022857 0 0 1 511.670857 1024z m0-899.657143l-8.557714 9.728c-13.750857 16.749714-27.501714 32.475429-40.886857 49.078857A2092.909714 2092.909714 0 0 0 365.238857 311.515429c-25.6 36.571429-48.274286 71.533714-66.998857 103.862857a433.810286 433.810286 0 0 0-74.752 201.069714 288.329143 288.329143 0 1 0 576.512-0.512 440.832 440.832 0 0 0-74.752-201.069714c-19.090286-32.475429-41.691429-66.998857-66.998857-103.862857A2892.068571 2892.068571 0 0 0 529.078857 144.676571z" p-id="48824"></path><path d="M511.597714 864.329143a249.344 249.344 0 0 1-244.004571-254.171429c0-140.361143 126.976-69.193143 244.004571 0s244.224-140.361143 244.224 0a249.344 249.344 0 0 1-244.224 254.171429z" p-id="48825"></path></svg>