<?xml version="1.0" standalone="no"?><!DOCTYPE svg PUBLIC "-//W3C//DTD SVG 1.1//EN" "http://www.w3.org/Graphics/SVG/1.1/DTD/svg11.dtd"><svg t="1587128466757" class="icon" viewBox="0 0 1024 1024" version="1.1" xmlns="http://www.w3.org/2000/svg" p-id="8915" xmlns:xlink="http://www.w3.org/1999/xlink" width="200" height="200"><defs><style type="text/css"></style></defs><path d="M122.88 587.093333h34.133333c6.826667 0 6.826667 0 13.653334-6.826666 0-6.826667 6.826667-6.826667 6.826666-13.653334s0-6.826667-6.826666-13.653333c-6.826667 0-6.826667-6.826667-13.653334-6.826667h-34.133333c-13.653333 0-20.48 13.653333-20.48 20.48 0 6.826667 0 6.826667 6.826667 13.653334 0 0 6.826667 6.826667 13.653333 6.826666zM122.88 730.453333h34.133333c6.826667 0 20.48-6.826667 20.48-20.48 0-6.826667 0-6.826667-6.826666-13.653333 0-6.826667-6.826667-6.826667-13.653334-6.826667h-34.133333c-6.826667 0-20.48 6.826667-20.48 20.48 0 13.653333 6.826667 20.48 20.48 20.48zM122.88 436.906667h34.133333c6.826667 0 6.826667 0 13.653334-6.826667 0-6.826667 6.826667-6.826667 6.826666-13.653333s-6.826667-20.48-20.48-20.48h-34.133333c-13.653333 6.826667-20.48 13.653333-20.48 27.306666 0 6.826667 0 6.826667 6.826667 13.653334h13.653333zM122.88 293.546667h34.133333c6.826667 0 6.826667 0 13.653334-6.826667 0-6.826667 6.826667-6.826667 6.826666-13.653333s-6.826667-20.48-20.48-20.48h-34.133333c-13.653333 0-20.48 13.653333-20.48 20.48 0 6.826667 0 6.826667 6.826667 13.653333 0 0 6.826667 6.826667 13.653333 6.826667zM170.666667 873.813333c0-6.826667 6.826667-6.826667 6.826666-13.653333s0-6.826667-6.826666-13.653333c0-6.826667-6.826667-6.826667-13.653334-6.826667h-34.133333c-6.826667 0-20.48 6.826667-20.48 20.48 0 6.826667 6.826667 20.48 20.48 20.48h34.133333c6.826667 0 6.826667 0 13.653334-6.826667z" p-id="8916"></path><path d="M211.626667 143.36c-20.48 0-34.133333-13.653333-34.133334-34.133333s13.653333-40.96 34.133334-40.96h716.8c-13.653333-20.48-34.133333-34.133333-61.44-34.133334H211.626667C170.666667 34.133333 136.533333 68.266667 136.533333 109.226667v109.226666h20.48c27.306667 0 54.613333 27.306667 54.613334 54.613334 0 13.653333-6.826667 27.306667-13.653334 40.96-13.653333 6.826667-27.306667 13.653333-40.96 13.653333H136.533333v34.133333h20.48c27.306667 0 54.613333 27.306667 54.613334 54.613334 0 34.133333-27.306667 61.44-54.613334 61.44H136.533333v34.133333h20.48c27.306667 0 54.613333 27.306667 54.613334 54.613333s-27.306667 54.613333-54.613334 54.613334H136.533333v34.133333h20.48c13.653333 0 27.306667 6.826667 40.96 13.653333 6.826667 13.653333 13.653333 27.306667 13.653334 47.786667 0 27.306667-27.306667 54.613333-54.613334 54.613333H136.533333v34.133334h20.48c13.653333 0 27.306667 6.826667 40.96 13.653333 6.826667 13.653333 13.653333 27.306667 13.653334 40.96 0 27.306667-27.306667 54.613333-54.613334 54.613333H136.533333c0 40.96 34.133333 75.093333 75.093334 75.093334h655.36c40.96 0 75.093333-34.133333 75.093333-75.093334V143.36H211.626667z m512 587.093333c0 13.653333-6.826667 20.48-20.48 20.48-40.96 6.826667-75.093333 6.826667-116.053334 13.653334H491.52c-40.96-6.826667-75.093333-6.826667-116.053333-13.653334-13.653333 0-20.48-6.826667-20.48-20.48v-54.613333c6.826667-20.48 13.653333-27.306667 34.133333-34.133333 20.48-6.826667 34.133333-6.826667 47.786667-13.653334 6.826667 0 13.653333-6.826667 27.306666-13.653333s20.48-20.48 20.48-40.96c-6.826667-6.826667-6.826667-13.653333-13.653333-20.48-13.653333-13.653333-20.48-27.306667-27.306667-40.96 0 0 0-6.826667-6.826666-6.826667-13.653333-6.826667-13.653333-34.133333-6.826667-47.786666 0-6.826667 0-6.826667 6.826667-13.653334 0-20.48 0-34.133333 6.826666-54.613333 13.653333-47.786667 47.786667-75.093333 95.573334-75.093333h13.653333c47.786667 0 81.92 27.306667 95.573333 75.093333v54.613333c0 6.826667 0 6.826667 6.826667 13.653334 6.826667 13.653333 6.826667 40.96-13.653333 47.786666l-6.826667 6.826667c0 13.653333-6.826667 27.306667-20.48 40.96-6.826667 6.826667-6.826667 13.653333-13.653333 20.48 0 20.48 6.826667 34.133333 20.48 40.96 6.826667 6.826667 13.653333 6.826667 27.306666 13.653333s27.306667 6.826667 40.96 13.653334c13.653333 6.826667 27.306667 13.653333 34.133334 34.133333 6.826667 13.653333 6.826667 34.133333 0 54.613333z" p-id="8917"></path></svg>